<svg width="109" height="125" viewBox="0 0 109 125" fill="none" xmlns="http://www.w3.org/2000/svg">
<g clip-path="url(#clip0_4_140)">
<path d="M54 32.0372V7.03719C54 7.03719 54 1.03719 69 0.0371875C84 -0.962812 87 18.5372 87 18.5372C106.79 18.2672 101.753 44.34 99 45.0372C96.247 45.7344 111.357 50.7235 108 62.0372H83C83 62.0372 83 69 76 69C69 69 69 62.0372 69 62.0372H54V47.0372C54 47.0372 47 47.0372 47 40.0372C47 33.0372 54 32.0372 54 32.0372Z" fill="#ECCD6A"/>
<path d="M54.4893 90.9628V115.963C54.4893 115.963 54.4893 121.963 39.4893 122.963C24.4893 123.963 21.4894 104.463 21.4894 104.463C1.69939 104.733 6.73634 78.66 9.48935 77.9628C12.2424 77.2656 -2.86724 72.2765 0.489357 60.9628H25.4894C25.4894 60.9628 25.4893 54 32.4893 54C39.4893 54 39.4893 60.9628 39.4893 60.9628H54.4893V75.9628C54.4893 75.9628 61.4893 75.9628 61.4893 82.9628C61.4893 89.9628 54.4893 90.9628 54.4893 90.9628Z" fill="#4B4940"/>
<path d="M54 92L54 117C54 117 54 123 69 124C84 125 87 105.5 87 105.5C106.79 105.77 101.753 79.6972 99 79C96.247 78.3028 111.357 73.3137 108 62L83 62C83 62 83 69 76 69C69 69 69 62 69 62H54V77C54 77 47 77 47 84C47 91 54 92 54 92Z" fill="#FF7B59"/>
<path d="M54.4893 32.0372V7.03719C54.4893 7.03719 54.4893 1.03719 39.4893 0.0371875C24.4893 -0.962812 21.4894 18.5372 21.4894 18.5372C1.69939 18.2672 6.73634 44.34 9.48935 45.0372C12.2424 45.7344 -2.86724 50.7235 0.489357 62.0372H25.4894C25.4894 62.0372 25.4893 55.0372 32.4893 55.0372C39.4893 55.0372 39.4893 62.0372 39.4893 62.0372H54.4893V47.0372C54.4893 47.0372 61.4893 47.0372 61.4893 40.0372C61.4893 33.0372 54.4893 32.0372 54.4893 32.0372Z" fill="#0E7F94"/>
</g>
<defs>
<clipPath id="clip0_4_140">
<rect width="109" height="125" fill="white"/>
</clipPath>
</defs>
</svg>
