<?xml version="1.0" standalone="no"?>
<!DOCTYPE svg PUBLIC "-//W3C//DTD SVG 20010904//EN"
 "http://www.w3.org/TR/2001/REC-SVG-20010904/DTD/svg10.dtd">
<svg version="1.0" xmlns="http://www.w3.org/2000/svg"
 width="512.000000pt" height="512.000000pt" viewBox="0 0 512.000000 512.000000"
 preserveAspectRatio="xMidYMid meet">

<g transform="translate(0.000000,512.000000) scale(0.100000,-0.100000)"
fill="#000000" stroke="none">
<path d="M3010 5111 c-95 -31 -158 -101 -175 -194 -4 -20 -9 -37 -11 -37 -2 0
-55 15 -117 34 -244 74 -459 101 -749 93 -204 -5 -316 -19 -483 -58 -109 -26
-131 -37 -178 -85 -69 -71 -86 -182 -42 -269 13 -27 23 -51 20 -53 -2 -2 -53
-25 -113 -52 -125 -54 -221 -106 -240 -128 -22 -28 -15 -78 14 -101 15 -12 32
-21 39 -21 7 0 77 31 156 69 224 108 411 166 627 197 108 15 407 21 456 8 78
-19 125 99 54 137 -70 37 -439 26 -663 -20 -156 -32 -185 -29 -210 20 -21 40
-19 74 8 104 64 75 566 129 872 95 389 -45 767 -193 1055 -415 30 -23 94 -79
142 -124 97 -89 122 -98 163 -56 41 40 33 69 -37 142 -119 124 -306 260 -492
358 -128 69 -149 102 -106 172 14 23 29 34 56 39 31 6 50 0 130 -41 341 -172
646 -447 858 -771 172 -264 282 -569 315 -874 9 -83 14 -98 36 -117 31 -27 52
-29 83 -7 36 25 40 51 27 169 -23 193 -76 392 -151 568 -37 86 -38 115 -6 151
27 29 61 38 100 25 30 -10 39 -22 74 -95 82 -175 153 -438 179 -663 17 -151 7
-466 -20 -606 -55 -294 -153 -540 -301 -762 -33 -48 -60 -98 -60 -111 0 -31
43 -72 76 -72 37 0 85 54 162 183 81 136 133 249 188 411 48 141 72 176 124
176 45 0 90 -44 90 -87 0 -75 -82 -301 -176 -484 -213 -417 -578 -774 -981
-961 -94 -43 -306 -118 -336 -118 -28 0 -67 -45 -67 -78 0 -35 37 -72 72 -72
41 0 217 56 334 106 110 47 216 104 325 174 87 56 142 53 175 -11 20 -40 10
-82 -28 -114 -47 -39 -242 -153 -348 -202 -195 -91 -459 -166 -680 -193 -110
-13 -354 -13 -478 1 -191 20 -426 84 -582 158 -78 37 -109 39 -138 8 -45 -47
-25 -95 56 -136 154 -77 365 -139 580 -171 122 -17 139 -22 160 -45 32 -38 30
-89 -7 -126 -34 -34 -43 -35 -194 -13 -464 67 -887 272 -1220 593 -171 165
-287 320 -382 511 -26 52 -56 105 -68 117 -36 40 -95 26 -117 -27 -12 -30 -10
-38 44 -146 88 -176 175 -300 351 -500 62 -71 67 -111 16 -156 -28 -25 -40
-29 -69 -24 -42 6 -75 36 -184 166 -447 531 -621 1226 -466 1863 25 103 19
134 -28 153 -69 28 -100 -18 -138 -206 -34 -168 -49 -358 -41 -502 l7 -117
-30 -31 c-49 -49 -129 -32 -151 31 -16 47 -14 358 4 496 62 475 286 948 594
1253 73 72 193 172 258 214 23 15 46 40 51 54 22 66 -39 120 -101 90 -109 -52
-357 -280 -482 -443 -76 -99 -80 -102 -113 -111 -57 -16 -112 27 -112 87 0 31
12 54 62 121 59 79 294 322 386 399 35 30 42 42 42 71 0 38 -20 63 -61 73 -20
5 -38 -3 -89 -41 -143 -108 -418 -411 -470 -520 -28 -58 -27 -144 4 -211 26
-55 81 -103 140 -123 l33 -10 -48 -93 c-104 -204 -185 -451 -229 -698 -28
-153 -40 -529 -20 -622 30 -146 179 -232 318 -183 l41 15 11 -57 c81 -414 302
-835 605 -1150 38 -41 87 -83 108 -94 112 -57 258 -15 319 92 l22 38 61 -47
c327 -258 756 -432 1186 -482 134 -15 179 -5 249 58 63 56 84 110 78 198 l-4
65 83 0 c348 0 808 142 1153 355 171 106 214 161 214 275 0 75 -22 126 -76
178 l-35 33 137 137 c180 181 299 340 413 552 104 193 207 480 207 578 0 135
-108 242 -242 242 l-40 0 6 35 c27 143 34 438 15 613 -31 288 -162 711 -253
819 -81 96 -249 103 -342 15 l-22 -21 -70 107 c-230 348 -544 628 -912 812
-108 54 -183 70 -240 51z"/>
<path d="M2340 4310 c-529 -66 -986 -345 -1266 -775 -564 -866 -250 -2026 675
-2489 485 -244 1057 -244 1542 0 410 205 724 568 869 1001 166 500 91 1061
-201 1498 -61 92 -191 249 -233 285 -28 23 -85 18 -107 -9 -33 -41 -24 -64 67
-168 248 -285 371 -570 405 -935 34 -371 -81 -769 -313 -1078 -66 -88 -217
-240 -303 -305 -542 -407 -1273 -430 -1830 -56 -655 439 -887 1287 -545 1997
207 430 616 754 1079 854 380 83 774 26 1105 -160 49 -28 102 -50 118 -50 53
0 85 60 58 110 -22 42 -274 164 -444 215 -197 60 -490 88 -676 65z"/>
<path d="M2415 3864 c-142 -19 -192 -30 -274 -56 -210 -67 -372 -166 -526
-322 -238 -241 -365 -538 -369 -864 -1 -108 0 -115 23 -133 29 -24 76 -24 99
-1 15 15 20 42 25 136 23 398 214 725 541 927 529 325 1217 158 1547 -375 220
-356 220 -816 0 -1172 -342 -553 -1059 -707 -1596 -344 -187 127 -342 323
-420 532 -22 59 -46 81 -87 80 -39 -1 -68 -32 -68 -72 0 -16 15 -64 33 -107
166 -392 518 -676 945 -760 117 -23 357 -22 467 1 267 57 480 170 665 356 441
441 501 1111 147 1630 -29 41 -95 118 -147 171 -184 185 -412 306 -662 354
-83 15 -287 27 -343 19z"/>
<path d="M2410 3410 c-271 -37 -529 -228 -641 -476 -110 -243 -98 -518 34
-754 57 -102 205 -250 307 -307 208 -117 448 -140 673 -66 96 32 137 63 137
104 0 31 -38 79 -63 79 -7 0 -49 -13 -93 -29 -263 -96 -524 -40 -720 154 -132
131 -197 289 -197 475 0 186 65 344 197 476 132 132 290 197 476 197 186 0
344 -65 476 -197 132 -133 198 -291 197 -476 -1 -145 -37 -262 -117 -383 -41
-61 -45 -98 -16 -127 33 -33 82 -27 118 14 79 91 145 258 163 412 44 399 -223
783 -617 884 -87 23 -228 31 -314 20z"/>
<path d="M2457 2960 c-237 -40 -378 -305 -279 -522 42 -93 129 -172 222 -203
64 -21 175 -22 239 0 103 34 202 133 236 235 21 64 21 180 0 240 -60 172 -240
279 -418 250z m158 -168 c80 -39 125 -111 125 -202 0 -128 -93 -222 -220 -222
-196 0 -296 231 -161 375 65 70 172 91 256 49z"/>
</g>
</svg>
