<svg width="725" height="519" viewBox="0 0 725 519" fill="none" xmlns="http://www.w3.org/2000/svg">
<g clip-path="url(#clip0_210_8548)">
<path d="M723.346 519H422.346C422.081 519 421.827 518.895 421.639 518.707C421.451 518.52 421.346 518.265 421.346 518C421.346 517.735 421.451 517.48 421.639 517.293C421.827 517.105 422.081 517 422.346 517H723.346C723.611 517 723.866 517.105 724.053 517.293C724.241 517.48 724.346 517.735 724.346 518C724.346 518.265 724.241 518.52 724.053 518.707C723.866 518.895 723.611 519 723.346 519Z" fill="#3F3D56"/>
<path d="M535.418 507.548H523.159L517.326 460.26L535.421 460.261L535.418 507.548Z" fill="#FFB8B8"/>
<path d="M514.401 504.045H538.045V518.932H499.515C499.515 516.977 499.9 515.041 500.648 513.235C501.396 511.429 502.493 509.787 503.875 508.405C505.257 507.023 506.898 505.926 508.704 505.178C510.511 504.43 512.447 504.045 514.401 504.045Z" fill="#2F2E41"/>
<path d="M624.374 493.661L613.222 498.754L588.269 458.165L604.727 450.648L624.374 493.661Z" fill="#FFB8B8"/>
<path d="M603.801 499.206L625.308 489.383L631.493 502.924L596.445 518.933C595.633 517.154 595.179 515.234 595.109 513.28C595.039 511.326 595.355 509.378 596.038 507.546C596.721 505.714 597.758 504.035 599.09 502.604C600.422 501.173 602.023 500.019 603.801 499.206Z" fill="#2F2E41"/>
<path d="M588.671 348.105C589.846 347.221 590.812 346.09 591.503 344.792C592.193 343.494 592.59 342.061 592.667 340.593C592.743 339.125 592.497 337.658 591.945 336.295C591.393 334.933 590.549 333.708 589.472 332.706L603.884 300.007L585.575 303.109L574.697 333.686C573.135 335.606 572.331 338.032 572.439 340.505C572.546 342.978 573.557 345.325 575.279 347.103C577.002 348.88 579.317 349.964 581.785 350.148C584.253 350.333 586.703 349.606 588.671 348.105Z" fill="#FFB8B8"/>
<path d="M534.637 495.079H522.925C521.789 495.076 520.697 494.644 519.865 493.87C519.033 493.097 518.523 492.038 518.437 490.906L506.05 320.347C506.002 319.693 506.098 319.037 506.331 318.425C506.563 317.812 506.927 317.257 507.396 316.8C507.865 316.342 508.428 315.993 509.046 315.775C509.665 315.558 510.323 315.479 510.975 315.542L584.71 322.736C585.808 322.843 586.828 323.35 587.577 324.16C588.326 324.97 588.751 326.026 588.772 327.129L590.192 402.365C590.199 402.773 590.278 403.177 590.426 403.558L618.211 475.611C618.425 476.167 618.527 476.761 618.51 477.357C618.493 477.954 618.358 478.541 618.112 479.084C617.866 479.628 617.514 480.117 617.078 480.524C616.641 480.93 616.128 481.245 615.568 481.451L603.699 485.825C602.668 486.204 601.534 486.194 600.511 485.795C599.487 485.396 598.645 484.637 598.142 483.66L564.009 417.291C563.823 416.931 563.687 416.546 563.605 416.149L557.774 388.055C557.605 387.24 557.152 386.513 556.495 386.002C555.838 385.492 555.02 385.232 554.189 385.27C553.358 385.307 552.567 385.64 551.959 386.208C551.351 386.775 550.965 387.541 550.87 388.367L539.108 491.091C538.983 492.189 538.458 493.202 537.633 493.938C536.808 494.673 535.742 495.08 534.637 495.079Z" fill="#2F2E41"/>
<path d="M540.469 186.987C554.034 186.987 565.03 175.991 565.03 162.426C565.03 148.861 554.034 137.865 540.469 137.865C526.904 137.865 515.908 148.861 515.908 162.426C515.908 175.991 526.904 186.987 540.469 186.987Z" fill="#FFB8B8"/>
<path d="M510.724 321.332C513.868 323.501 549.29 346.844 589.666 328.278C589.143 323.769 584.105 278.498 588.505 245.125C590.593 229.291 584.288 214.622 571.207 204.879C564.102 199.613 555.722 196.336 546.93 195.387C538.138 194.437 529.251 195.85 521.186 199.478C520.524 199.775 519.856 200.084 519.184 200.405L510.724 321.332Z" fill="#4AC4E2"/>
<path d="M590.049 327.906C589.426 327.906 588.81 327.776 588.24 327.524C587.669 327.273 587.158 326.906 586.737 326.446L581.365 320.584C580.842 320.011 580.476 319.313 580.301 318.557C580.126 317.801 580.149 317.013 580.367 316.269L592.671 274.621L573.949 235.305C573.128 233.577 572.927 231.618 573.38 229.759C573.779 228.127 574.663 226.655 575.916 225.536C577.169 224.416 578.732 223.703 580.398 223.491C582.065 223.278 583.756 223.575 585.25 224.343C586.745 225.111 587.971 226.314 588.767 227.793L614.077 268.861C615.061 270.456 615.639 272.269 615.759 274.14C615.879 276.011 615.538 277.883 614.766 279.591L594.156 325.256C593.851 325.936 593.381 326.528 592.789 326.981C592.197 327.433 591.502 327.731 590.767 327.848C590.529 327.886 590.29 327.905 590.049 327.906Z" fill="#4AC4E2"/>
<path opacity="0.2" d="M528.9 322.579H519.088L536.216 241.976L537.204 242.105L533.394 318.305C533.337 319.458 532.839 320.545 532.002 321.341C531.166 322.137 530.055 322.58 528.9 322.579Z" fill="black"/>
<path d="M519.821 342.619C520.786 341.51 521.497 340.204 521.903 338.791C522.309 337.378 522.4 335.893 522.17 334.441C521.94 332.989 521.394 331.605 520.571 330.387C519.748 329.169 518.669 328.145 517.408 327.39L524.716 292.41L507.45 299.247L503.157 331.416C502.028 333.618 501.746 336.158 502.364 338.555C502.983 340.951 504.459 343.038 506.513 344.419C508.567 345.8 511.056 346.379 513.509 346.048C515.962 345.716 518.208 344.496 519.821 342.619Z" fill="#FFB8B8"/>
<path d="M518.831 322.68C518.662 322.68 518.492 322.67 518.324 322.652L507.859 321.489C506.728 321.359 505.687 320.808 504.946 319.944C504.204 319.08 503.816 317.968 503.86 316.83L508.19 212.048C508.325 208.762 509.654 205.637 511.927 203.26C514.2 200.882 517.261 199.414 520.538 199.13C523.815 198.846 527.084 199.766 529.731 201.718C532.379 203.669 534.225 206.519 534.924 209.733L537.713 222.563L537.7 222.654L523.271 318.846C523.114 319.912 522.58 320.885 521.765 321.589C520.949 322.293 519.908 322.68 518.831 322.68Z" fill="#4AC4E2"/>
<path d="M560.705 184.079C558.158 184.516 556.063 180.971 555.746 178.477C555.429 175.984 556.338 173.597 556.437 171.119C556.536 168.642 555.367 165.631 552.794 164.896C550.097 164.126 547.596 166.29 544.835 166.03C540.987 165.667 539.055 161.164 538.589 157.521C538.123 153.879 537.757 149.565 534.424 147.487C531.102 145.416 526.992 146.923 523.175 146.988C516.723 147.097 510.156 142.177 508.648 136.105C509.431 136.331 510.266 136.289 511.022 135.986C511.779 135.683 512.412 135.137 512.823 134.433C513.146 133.683 513.212 132.847 513.01 132.055C512.809 131.263 512.351 130.56 511.708 130.055L519.021 133.636C518.022 131.602 519.531 129.285 521.609 128.515C523.687 127.745 526.104 128.09 528.397 128.447C539.847 130.226 553.11 129.349 560.705 138.079C565.966 144.127 570.297 155.634 569.705 163.079C569.114 170.525 560.705 184.079 560.705 184.079Z" fill="#2F2E41"/>
<path d="M282 461H18.9996C17.1438 460.998 15.3645 460.26 14.0522 458.947C12.7399 457.635 12.0017 455.856 11.9996 454L1.35646e-05 7.02686C-0.0017978 6.10586 0.17782 5.19353 0.528609 4.34195C0.879397 3.49037 1.39448 2.71621 2.04446 2.06371C2.69444 1.4112 3.46659 0.893109 4.3168 0.539017C5.16701 0.184925 6.07863 0.00176456 6.99963 0H270C271.856 0.00208038 273.635 0.740247 274.947 2.05255C276.259 3.36486 276.998 5.14412 277 7L279.174 87.9731L277.175 88.0269L275 7.02686C275.002 6.3684 274.874 5.71602 274.624 5.10698C274.374 4.49794 274.006 3.94417 273.541 3.47734C273.077 3.01051 272.525 2.63975 271.917 2.38626C271.31 2.13277 270.658 2.00152 270 2H6.99963C5.67402 2.00154 4.40315 2.52882 3.4658 3.46617C2.52845 4.40352 2.00117 5.67439 1.99963 7L13.9993 453.973C13.9973 454.632 14.1252 455.284 14.3754 455.893C14.6257 456.502 14.9935 457.056 15.4579 457.523C15.9223 457.989 16.4741 458.36 17.0818 458.614C17.6895 458.867 18.3412 458.998 18.9996 459H282C283.325 458.998 284.596 458.471 285.533 457.534C286.471 456.597 286.998 455.326 287 454L284.664 367.027L286.664 366.973L288.999 453.973C289.001 454.894 288.822 455.807 288.471 456.658C288.12 457.51 287.605 458.284 286.955 458.936C286.305 459.589 285.533 460.107 284.682 460.461C283.832 460.815 282.921 460.998 282 461Z" fill="#CCCCCC"/>
<path d="M282.395 207.973L280.396 208.027L281.426 246.413L283.426 246.359L282.395 207.973Z" fill="#CCCCCC"/>
<path d="M258.4 421.609H40.5402C38.9573 421.608 37.4398 420.978 36.3206 419.859C35.2013 418.74 34.5718 417.222 34.57 415.639L24.63 45.3877C24.6281 44.6019 24.7809 43.8234 25.0799 43.0967C25.3789 42.37 25.8181 41.7093 26.3725 41.1524C26.9269 40.5955 27.5855 40.1533 28.3108 39.851C29.0362 39.5487 29.814 39.3923 30.5998 39.3906H248.459C250.042 39.3924 251.559 40.022 252.679 41.1413C253.798 42.2605 254.427 43.778 254.429 45.3608L256.23 87.958L254.232 88.042L252.43 45.4028C252.434 44.8784 252.334 44.3585 252.136 43.8728C251.938 43.3871 251.646 42.9452 251.277 42.5724C250.909 42.1997 250.47 41.9035 249.986 41.7007C249.502 41.4979 248.984 41.3925 248.459 41.3907H30.5998C29.5472 41.3919 28.5381 41.8106 27.7938 42.5549C27.0495 43.2992 26.6309 44.3083 26.6297 45.3609L36.5696 415.612C36.5675 416.136 36.6686 416.654 36.8671 417.138C37.0655 417.622 37.3575 418.063 37.7263 418.434C38.095 418.805 38.5334 419.1 39.0162 419.302C39.4991 419.504 40.0169 419.608 40.5402 419.609H258.4C259.452 419.608 260.461 419.189 261.206 418.445C261.95 417.701 262.369 416.692 262.37 415.639L261.082 367.026L263.082 366.974L264.369 415.613C264.371 416.399 264.218 417.177 263.919 417.904C263.62 418.63 263.181 419.291 262.627 419.848C262.072 420.405 261.414 420.847 260.688 421.149C259.963 421.451 259.185 421.608 258.4 421.609Z" fill="#CCCCCC"/>
<path d="M258.899 208.974L256.9 209.027L257.905 247.027L259.905 246.974L258.899 208.974Z" fill="#CCCCCC"/>
<path d="M316.37 209H61.3698C59.5238 208.998 57.7533 208.268 56.4427 206.968C55.132 205.668 54.3872 203.903 54.37 202.058L50.3698 94C50.3718 92.1441 51.11 90.3649 52.4223 89.0526C53.7346 87.7402 55.5139 87.0021 57.3698 87H312.37C314.216 87.002 315.986 87.7323 317.297 89.0321C318.608 90.332 319.352 92.0965 319.369 93.9424L323.37 202C323.368 203.856 322.629 205.635 321.317 206.947C320.005 208.26 318.226 208.998 316.37 209ZM52.37 93.9473L56.3698 202C56.3713 203.326 56.8986 204.596 57.8359 205.534C58.7733 206.471 60.0441 206.998 61.3698 207H316.37C317.686 206.998 318.949 206.478 319.885 205.552C320.821 204.626 321.354 203.369 321.369 202.053L317.37 94C317.368 92.6744 316.841 91.4035 315.904 90.4662C314.966 89.5288 313.695 89.0015 312.37 89H57.3698C56.0533 89.0015 54.7903 89.5216 53.8546 90.4476C52.9188 91.3735 52.3854 92.6309 52.37 93.9473Z" fill="#3F3D56"/>
<path d="M364.37 368H109.37C107.524 367.998 105.753 367.268 104.443 365.968C103.132 364.668 102.387 362.903 102.37 361.058L98.3698 253C98.3718 251.144 99.11 249.365 100.422 248.053C101.735 246.74 103.514 246.002 105.37 246H360.37C362.216 246.002 363.986 246.732 365.297 248.032C366.608 249.332 367.352 251.097 367.369 252.942L371.37 361C371.368 362.856 370.629 364.635 369.317 365.947C368.005 367.26 366.226 367.998 364.37 368ZM100.37 252.947L104.37 361C104.371 362.326 104.899 363.596 105.836 364.534C106.773 365.471 108.044 365.998 109.37 366H364.37C365.686 365.998 366.949 365.478 367.885 364.552C368.821 363.626 369.354 362.369 369.369 361.053L365.37 253C365.368 251.674 364.841 250.404 363.904 249.466C362.966 248.529 361.695 248.002 360.37 248H105.37C104.053 248.002 102.79 248.522 101.855 249.448C100.919 250.374 100.385 251.631 100.37 252.947Z" fill="#3F3D56"/>
<path d="M169.87 269.5C168.146 269.5 166.493 270.185 165.274 271.404C164.055 272.623 163.37 274.276 163.37 276C163.37 277.724 164.055 279.377 165.274 280.596C166.493 281.815 168.146 282.5 169.87 282.5H299.87C301.594 282.5 303.247 281.815 304.466 280.596C305.685 279.377 306.37 277.724 306.37 276C306.37 274.276 305.685 272.623 304.466 271.404C303.247 270.185 301.594 269.5 299.87 269.5H169.87Z" fill="#4AC4E2"/>
<path d="M169.87 300.5C168.146 300.5 166.493 301.185 165.274 302.404C164.055 303.623 163.37 305.276 163.37 307C163.37 308.724 164.055 310.377 165.274 311.596C166.493 312.815 168.146 313.5 169.87 313.5H299.87C301.594 313.5 303.247 312.815 304.466 311.596C305.685 310.377 306.37 308.724 306.37 307C306.37 305.276 305.685 303.623 304.466 302.404C303.247 301.185 301.594 300.5 299.87 300.5H169.87Z" fill="#4AC4E2"/>
<path d="M169.87 331.5C168.146 331.5 166.493 332.185 165.274 333.404C164.055 334.623 163.37 336.276 163.37 338C163.37 339.724 164.055 341.377 165.274 342.596C166.493 343.815 168.146 344.5 169.87 344.5H299.87C301.594 344.5 303.247 343.815 304.466 342.596C305.685 341.377 306.37 339.724 306.37 338C306.37 336.276 305.685 334.623 304.466 333.404C303.247 332.185 301.594 331.5 299.87 331.5H169.87Z" fill="#4AC4E2"/>
<path d="M121.87 110.5C120.146 110.5 118.493 111.185 117.274 112.404C116.055 113.623 115.37 115.276 115.37 117C115.37 118.724 116.055 120.377 117.274 121.596C118.493 122.815 120.146 123.5 121.87 123.5H251.87C253.594 123.5 255.247 122.815 256.466 121.596C257.685 120.377 258.37 118.724 258.37 117C258.37 115.276 257.685 113.623 256.466 112.404C255.247 111.185 253.594 110.5 251.87 110.5H121.87Z" fill="#4AC4E2"/>
<path d="M121.87 141.5C120.146 141.5 118.493 142.185 117.274 143.404C116.055 144.623 115.37 146.276 115.37 148C115.37 149.724 116.055 151.377 117.274 152.596C118.493 153.815 120.146 154.5 121.87 154.5H251.87C253.594 154.5 255.247 153.815 256.466 152.596C257.685 151.377 258.37 149.724 258.37 148C258.37 146.276 257.685 144.623 256.466 143.404C255.247 142.185 253.594 141.5 251.87 141.5H121.87Z" fill="#4AC4E2"/>
<path d="M121.87 172.5C120.146 172.5 118.493 173.185 117.274 174.404C116.055 175.623 115.37 177.276 115.37 179C115.37 180.724 116.055 182.377 117.274 183.596C118.493 184.815 120.146 185.5 121.87 185.5H251.87C253.594 185.5 255.247 184.815 256.466 183.596C257.685 182.377 258.37 180.724 258.37 179C258.37 177.276 257.685 175.623 256.466 174.404C255.247 173.185 253.594 172.5 251.87 172.5H121.87Z" fill="#4AC4E2"/>
<path d="M140.37 30C145.893 30 150.37 25.5228 150.37 20C150.37 14.4772 145.893 10 140.37 10C134.847 10 130.37 14.4772 130.37 20C130.37 25.5228 134.847 30 140.37 30Z" fill="#E6E6E6"/>
</g>
<defs>
<clipPath id="clip0_210_8548">
<rect width="725" height="519" fill="white"/>
</clipPath>
</defs>
</svg>
