<svg width="936" height="707" viewBox="0 0 936 707" fill="none" xmlns="http://www.w3.org/2000/svg">
<path d="M186.819 694.348C186.819 694.348 132.666 697.951 133.606 632.613C133.606 632.613 135.768 578.073 155.348 528.917C155.348 528.917 166.57 504.349 145.531 461.187C145.531 461.187 67.6896 334.714 96.0801 278.974C96.0801 278.974 231.795 30.2309 429.587 20.0435C429.587 20.0435 654.733 -8.72762 780.955 41.6193C780.955 41.6193 869.327 63.1951 810.416 183.674C810.416 183.674 724.877 304.152 778.847 376.976C778.847 376.976 907.199 536.185 736.769 694.39L186.819 694.348Z" fill="#4AC4E2"/>
<path opacity="0.7" d="M186.819 694.348C186.819 694.348 132.666 697.951 133.606 632.613C133.606 632.613 135.768 578.073 155.348 528.917C155.348 528.917 166.57 504.349 145.531 461.187C145.531 461.187 67.6896 334.714 96.0801 278.974C96.0801 278.974 231.795 30.2309 429.587 20.0435C429.587 20.0435 654.733 -8.72762 780.955 41.6193C780.955 41.6193 869.327 63.1951 810.416 183.674C810.416 183.674 724.877 304.152 778.847 376.976C778.847 376.976 907.199 536.185 736.769 694.39L186.819 694.348Z" fill="white"/>
<path d="M414.668 143.255H105.237V327.043H414.668V143.255Z" fill="white"/>
<path d="M400.646 379.988H188.009V680.175H400.646V379.988Z" fill="white"/>
<path d="M401.435 680.941H187.219V379.232H401.435V680.941ZM188.798 679.419H399.845V380.754H188.798V679.419Z" fill="#2F2E41"/>
<path d="M558.101 567.555C557.68 590.88 551.161 648.774 551.161 648.774L527.668 649.189C527.668 649.189 527.214 643.681 526.381 635.026C523.765 607.704 517.419 548.909 509.84 532.147C509.84 532.147 505.04 518.823 502.445 492.164L499.818 456.352L497.655 514.247C497.655 514.247 491.504 585.755 480.801 606.275C480.514 606.822 480.082 607.287 479.549 607.625C479.016 607.963 478.4 608.161 477.763 608.201C474.249 608.449 466.951 608.201 461.546 603.366C461.546 603.366 461.546 599.339 461.546 592.806C461.546 566.923 461.394 501.388 460.692 490.083C460.692 490.083 449.826 410.126 455.026 375.164L458.518 373.921L551.171 382.39L552.977 382.556C552.977 382.556 558.101 388.064 557.237 459.293C557.237 459.293 557.237 511.348 558.534 523.43C559.831 535.512 558.534 544.229 558.101 567.555Z" fill="#2F2E41"/>
<path opacity="0.2" d="M558.101 567.555C557.68 590.88 551.161 648.774 551.161 648.774L527.668 649.189C527.668 649.189 527.214 643.681 526.381 635.026C539.084 634.86 543.766 627.944 543.766 627.944C550.252 615.862 548.988 550.068 548.988 550.068C541.593 537.572 548.533 533.824 548.533 533.824C555.02 527.613 549.842 518.823 549.842 518.823C540.717 509.246 548.533 490.921 548.533 490.921C560.285 458.019 549.409 384.285 549.409 384.285L551.171 382.349L552.977 382.514C552.977 382.514 558.101 388.022 557.237 459.251C557.237 459.251 557.237 511.306 558.534 523.389C559.831 535.471 558.534 544.229 558.101 567.555Z" fill="black"/>
<path d="M623.131 270.215C615.347 266.643 591.335 289.886 591.335 289.886L563.896 249.881C557.961 242.417 534.89 240.315 534.89 240.315L496.855 239.725C492.174 239.798 470.292 244.332 470.292 244.332C451.913 247.925 445.048 292.112 445.048 292.112L436.312 339.881C431.004 366.157 448.204 365.256 448.204 365.256L453.329 369.956L455.059 371.54C465.038 392.443 506.207 395.124 506.207 395.124C533.019 400.197 552.977 382.587 552.977 382.587C549.852 375.712 552.35 367.658 552.35 367.658C556.404 355.11 559.831 326.743 559.831 326.743C590.698 351.238 609.412 324.351 609.412 324.351L638.732 280.164C627.197 281.013 623.131 270.215 623.131 270.215ZM464.205 303.438H460.27C460.27 303.438 461.146 297.775 464.205 295.259V303.438Z" fill="#4AC4E2"/>
<path opacity="0.2" d="M499.818 456.352L497.655 514.247C497.655 514.247 491.504 585.755 480.801 606.275C480.513 606.822 480.082 607.287 479.549 607.625C479.016 607.963 478.4 608.161 477.763 608.201C474.249 608.449 466.951 608.201 461.546 603.366C461.546 603.366 461.546 599.339 461.546 592.806C466.249 589.12 478.671 576.334 481.125 543.391C480.556 540.961 480.533 538.443 481.059 536.005C481.585 533.567 482.646 531.263 484.174 529.248C484.174 529.248 488.952 525.904 484.174 519.661C484.174 519.661 476.909 518.315 485.255 507.238C485.255 507.238 496.585 444.726 498.401 419.972C498.401 419.972 501.202 444.529 499.818 456.352Z" fill="black"/>
<path d="M527.668 649.188C527.668 649.188 526.922 658.196 523.927 662.834C523.927 662.834 498.326 688.892 510.315 689.555C510.315 689.555 520.229 695.084 538.922 677.194L548.317 668.01C549.837 666.527 550.714 664.548 550.771 662.471L551.161 648.774L527.668 649.188Z" fill="#4AC4E2"/>
<path d="M461.567 603.366C461.567 603.366 451.534 613.243 443.383 612.777C443.383 612.777 406.3 617.032 413.716 624.61C413.716 624.61 442.518 634.239 473.525 620.666C474.644 620.173 475.601 619.395 476.289 618.416C476.978 617.437 477.371 616.295 477.427 615.117L477.752 608.201C477.752 608.201 468.378 609.112 461.567 603.366Z" fill="#4AC4E2"/>
<path d="M623.131 270.215C623.131 270.215 620.699 253.557 628.537 246.952L645.738 233.358C646.078 233.092 646.501 232.942 646.939 232.933C647.378 232.924 647.808 233.055 648.16 233.306C648.565 233.603 648.834 234.038 648.911 234.521C648.988 235.004 648.866 235.496 648.57 235.894L639.802 247.614C639.802 247.614 644.851 248.049 645.316 252.449C645.316 252.449 648.3 251.569 650.603 255.555C650.603 255.555 655.663 254.892 656.582 260.618L656.69 262.833C656.783 263.698 656.603 264.57 656.173 265.336C655.743 266.102 655.082 266.726 654.277 267.128C653.472 267.529 652.559 267.69 651.657 267.589C650.755 267.488 649.906 267.129 649.219 266.56C649.219 266.56 650.127 277.338 638.754 280.092C638.732 280.112 627.867 281.603 623.131 270.215Z" fill="#F9B499"/>
<path d="M627.597 255.576C628.807 254.085 630.062 252.625 631.305 251.155C632.548 249.685 633.813 248.246 635.067 246.786L636.981 244.591C637.126 244.448 637.312 244.349 637.515 244.305C637.719 244.261 637.931 244.274 638.127 244.343C638.326 244.411 638.499 244.534 638.626 244.696C638.753 244.858 638.827 245.052 638.84 245.254C638.885 245.739 638.903 246.226 638.894 246.713C638.85 248.642 638.541 250.556 637.975 252.408C637.843 253.233 637.804 254.069 637.856 254.903C637.899 255.705 638.101 256.492 638.451 257.222C638.615 257.553 638.855 257.845 639.152 258.076C639.45 258.308 639.798 258.472 640.17 258.557C640.984 258.712 641.825 258.68 642.624 258.464L643.316 258.34L643.24 258.971C643.159 259.689 643.181 260.413 643.305 261.125C643.385 261.8 643.671 262.437 644.127 262.957C644.361 263.188 644.648 263.363 644.965 263.469C645.282 263.575 645.621 263.609 645.954 263.568C646.318 263.535 646.68 263.476 647.035 263.392L648.116 263.009L648.862 262.75L648.614 263.444C648.484 263.83 648.441 264.238 648.488 264.641C648.534 265.045 648.669 265.434 648.884 265.784C649.357 266.505 650.087 267.038 650.938 267.285C651.802 267.58 652.745 267.58 653.609 267.285C654.488 266.962 655.282 266.457 655.933 265.804C655.342 266.532 654.579 267.114 653.706 267.502C652.791 267.882 651.768 267.948 650.808 267.689C650.333 267.554 649.876 267.367 649.446 267.13C649.01 266.866 648.641 266.512 648.365 266.094C648.082 265.67 647.896 265.193 647.822 264.695C647.747 264.197 647.785 263.689 647.933 263.206L648.419 263.651L647.273 264.107C646.863 264.224 646.444 264.311 646.019 264.365C645.559 264.436 645.088 264.401 644.645 264.264C644.202 264.127 643.798 263.893 643.468 263.579C642.873 262.938 642.496 262.14 642.386 261.29C642.24 260.491 642.208 259.676 642.289 258.868L642.905 259.386C641.944 259.659 640.927 259.706 639.943 259.52C639.428 259.404 638.945 259.182 638.529 258.869C638.113 258.556 637.772 258.16 637.532 257.708C637.09 256.858 636.846 255.925 636.819 254.975C636.774 254.061 636.832 253.144 636.992 252.242V252.19C637.564 250.424 637.888 248.593 637.954 246.744C637.981 246.289 637.981 245.833 637.954 245.378C637.952 245.341 637.94 245.306 637.919 245.275C637.898 245.245 637.868 245.221 637.833 245.206C637.798 245.191 637.76 245.186 637.722 245.19C637.684 245.195 637.648 245.21 637.619 245.233L635.651 247.304C634.321 248.701 633.013 250.12 631.662 251.496C630.31 252.873 628.97 254.219 627.597 255.576Z" fill="#F7A48B"/>
<path d="M645.295 252.49C645.312 253.55 645.122 254.604 644.732 255.596C644.392 256.595 643.856 257.523 643.154 258.329C643.136 257.27 643.327 256.216 643.716 255.224C644.066 254.229 644.6 253.303 645.295 252.49Z" fill="#F7A48B"/>
<path d="M650.581 255.576C650.572 256.929 650.361 258.275 649.954 259.572C649.587 260.879 649.022 262.127 648.279 263.278C648.348 260.565 649.14 257.913 650.581 255.576Z" fill="#F7A48B"/>
<path opacity="0.2" d="M507.375 257.273C504.466 257.657 503.05 250.327 503.05 250.327C500.142 250.575 494.336 254.747 494.336 254.747C494.336 254.747 494.866 296.211 500.142 295.073C500.142 295.073 503.05 296.336 508.856 282.556L522.986 257.532C522.986 257.532 515.494 254.426 511.71 253.722C511.035 254.923 510.112 255.98 508.996 256.828C508.688 257.001 508.352 257.123 508.002 257.191C507.796 257.239 507.586 257.266 507.375 257.273Z" fill="white"/>
<path d="M527.905 234.725L512.251 252.956C511.431 254.439 510.332 255.762 509.007 256.859C508.557 257.217 507.985 257.402 507.401 257.381C506.816 257.36 506.261 257.134 505.84 256.745C501.753 252.822 501.656 236.433 501.753 230.77C502.796 230.939 503.852 231.025 504.91 231.028C512.77 231.028 519.764 226.442 524.37 219.236C524.439 224.575 525.642 229.845 527.905 234.725Z" fill="#F9B499"/>
<path d="M501.71 230.77C501.71 230.77 501.277 238.742 502.077 241.982C502.077 241.982 511.116 239.974 515.635 227.612C515.635 227.612 510.705 232.24 501.71 230.77Z" fill="#F7A48B"/>
<path d="M511.678 253.722C511.678 253.722 527.527 257.915 530.738 262.181L534.133 239.28C534.133 239.28 534.89 235.139 527.906 234.725L511.678 253.722Z" fill="#4AC4E2"/>
<path d="M487.709 261.446C487.709 261.446 495.893 251.455 503.018 250.327C503.018 250.327 501.169 239.446 501.699 235.915C501.699 235.915 491.006 239.704 487.709 261.446Z" fill="#4AC4E2"/>
<path opacity="0.2" d="M511.678 253.722C511.678 253.722 527.527 257.915 530.738 262.181L534.133 239.28C534.133 239.28 534.89 235.139 527.906 234.725L511.678 253.722Z" fill="black"/>
<path opacity="0.2" d="M487.709 261.446C487.709 261.446 495.893 251.455 503.018 250.327C503.018 250.327 501.169 239.446 501.699 235.915C501.699 235.915 491.006 239.704 487.709 261.446Z" fill="black"/>
<path d="M530.1 198.779C530.173 205.973 528.183 213.049 524.349 219.236C519.71 226.483 512.716 231.028 504.888 231.028C503.83 231.025 502.774 230.939 501.731 230.77C489.287 228.803 479.665 215.24 479.665 198.675C479.665 180.837 490.963 166.363 504.888 166.363C518.813 166.363 530.1 180.889 530.1 198.779Z" fill="#F9B499"/>
<path d="M540.857 204.048C539.851 205.5 538.632 206.804 537.236 207.92L528.468 202.143C528.468 202.143 525.451 189.533 509.007 188.229C509.106 189.425 509.665 190.544 510.576 191.368C511.487 192.193 512.684 192.664 513.937 192.691C513.937 192.691 508.002 194.503 501.656 188.208C500.2 186.679 498.278 185.629 496.163 185.206C494.001 184.802 491.439 185.061 490.077 187.691C490.077 187.691 485.936 193.561 479.979 192.66C479.979 192.66 479.568 197.226 479.655 198.727H479.59C478.855 198.261 472.638 193.996 473.503 186.914C473.925 183.663 475.827 179.791 480.476 175.422C480.476 175.422 478 162.295 495.277 156.787C495.277 156.787 522.165 148.639 523.808 160.721C523.808 160.721 544.349 159.924 546.025 177.783C545.971 177.71 548.133 193.882 540.857 204.048Z" fill="#2F2E41"/>
<path d="M479.817 192.381L479.719 196.128C479.719 196.128 485.201 196.977 494.315 190.507C494.315 190.507 507.288 196.884 516.759 194.441C516.759 194.441 523.127 194.813 527.246 203.262L528.457 202.143C528.457 202.143 525.905 189.792 508.996 188.219C508.996 188.219 508.997 192.153 513.937 192.691C513.937 192.691 507.98 194.441 501.612 188.146C500.167 186.656 498.281 185.623 496.207 185.185C493.98 184.761 491.396 184.988 490.077 187.701C490.066 187.701 485.504 193.975 479.817 192.381Z" fill="#F7A48B"/>
<path opacity="0.2" d="M540.857 204.048C539.851 205.5 538.632 206.804 537.236 207.92L528.468 202.143C528.468 202.143 525.451 189.533 509.007 188.229C509.106 189.425 509.665 190.544 510.576 191.368C511.487 192.193 512.684 192.664 513.937 192.691C513.937 192.691 508.002 194.503 501.656 188.208C500.2 186.679 498.278 185.629 496.163 185.206C494.001 184.802 491.439 185.061 490.077 187.691C490.077 187.691 485.936 193.561 479.979 192.66C479.979 192.66 479.568 197.226 479.655 198.727H479.59C478.844 198.292 472.616 194.296 473.427 186.924H473.535C474.227 186.728 479.298 184.968 482.79 176.654C482.79 176.654 491.104 158.505 514.64 164.562C514.64 164.562 512.056 160.421 510.034 159.468C510.034 159.468 518.792 159.603 522.521 166.715C522.521 166.715 534.144 167.813 539.311 174.998C539.311 174.998 530.554 172.793 532.825 177.472C532.814 177.389 542.285 184.978 540.857 204.048Z" fill="black"/>
<path d="M536.874 211.443C538.342 207.174 536.733 202.831 533.279 201.741C529.825 200.652 525.835 203.229 524.367 207.498C522.899 211.767 524.508 216.11 527.962 217.2C531.416 218.289 535.406 215.712 536.874 211.443Z" fill="#F9B499"/>
<path opacity="0.2" d="M552.977 382.535C552.977 382.535 533.019 400.135 506.207 395.073C506.207 395.073 465.038 392.391 455.059 371.488L453.329 369.904L466.616 373.58C487.806 395.073 533.333 384.326 533.333 384.326C544.868 381.345 540.511 375.071 540.511 375.071C535.506 367.606 545.495 354.157 545.495 354.157C553.604 338.038 552.047 312.662 552.047 312.662L559.831 326.691C559.831 326.691 556.404 355.058 552.35 367.606C552.35 367.606 549.852 375.661 552.977 382.535Z" fill="black"/>
<path opacity="0.2" d="M558.815 246.123C558.815 246.123 561.269 259.23 569.443 263.34C569.443 263.34 572.297 264.117 568.826 271.747C568.826 271.747 564.945 277.814 574.545 283.487C574.545 283.487 582.719 287.007 578.87 292.681L573.54 297.785C573.501 297.824 573.475 297.874 573.467 297.928C573.459 297.982 573.469 298.036 573.496 298.084C573.522 298.132 573.563 298.171 573.614 298.196C573.665 298.22 573.722 298.228 573.778 298.22L583.368 296.594C583.368 296.594 579.811 304.049 581.476 309.515C581.476 309.652 581.532 309.784 581.634 309.881C581.735 309.978 581.873 310.033 582.016 310.033C582.159 310.033 582.297 309.978 582.398 309.881C582.5 309.784 582.557 309.652 582.557 309.515C583.551 305.477 586.535 294.865 591.422 289.989L563.983 249.985C562.473 248.456 560.731 247.154 558.815 246.123Z" fill="black"/>
<path d="M429.014 306.088L452.14 375.847L503.45 371.012L480.055 304.815L429.014 306.088Z" fill="#4AC4E2"/>
<path opacity="0.4" d="M429.014 306.088L452.14 375.847L503.45 371.012L480.055 304.815L429.014 306.088Z" fill="white"/>
<path d="M483.514 302.009L506.64 368.714L503.45 371.012L480.055 304.815L429.014 306.088L434.593 303.282L483.514 302.009Z" fill="#4AC4E2"/>
<path opacity="0.5" d="M483.514 302.009L506.64 368.714L503.45 371.012L480.055 304.815L429.014 306.088L434.593 303.282L483.514 302.009Z" fill="white"/>
<path opacity="0.4" d="M461.794 344.477C466.84 344.477 470.93 340.625 470.93 335.874C470.93 331.122 466.84 327.271 461.794 327.271C456.749 327.271 452.659 331.122 452.659 335.874C452.659 340.625 456.749 344.477 461.794 344.477Z" fill="white"/>
<path d="M446.507 342.034C447.239 342.239 447.886 342.659 448.356 343.235C448.543 343.463 448.657 343.738 448.686 344.026C448.714 344.315 448.656 344.605 448.517 344.863C448.378 345.12 448.164 345.334 447.902 345.479C447.639 345.623 447.339 345.693 447.037 345.678C445.479 345.502 443.956 345.107 442.518 344.508C442.249 344.393 441.966 344.313 441.674 344.27C440.247 344.084 435.534 342.986 435.761 337.023C435.8 336.263 435.524 335.519 434.993 334.952C433.598 333.462 430.939 330.294 430.333 327.146C430.222 326.4 430.288 325.64 430.525 324.922C430.762 324.204 431.165 323.546 431.704 322.997C432.243 322.448 432.904 322.022 433.638 321.751C434.372 321.48 435.16 321.371 435.944 321.431L445.988 322.042C446.504 322.05 446.996 322.255 447.355 322.61C447.714 322.965 447.91 323.443 447.902 323.937C447.893 324.431 447.68 324.902 447.309 325.245C446.938 325.589 446.439 325.778 445.923 325.769L442.388 325.863C442.192 325.896 442.01 325.98 441.862 326.106C441.713 326.232 441.603 326.395 441.545 326.577C441.506 326.818 441.557 327.064 441.69 327.273C441.822 327.481 442.028 327.638 442.269 327.716H446.258C446.76 327.724 447.239 327.921 447.591 328.263C447.943 328.606 448.14 329.068 448.14 329.548C448.138 329.995 447.965 330.426 447.654 330.76C447.344 331.093 446.917 331.307 446.453 331.36L444.712 331.557C444.475 331.582 444.245 331.655 444.038 331.77C443.832 331.885 443.652 332.04 443.511 332.225C443.369 332.41 443.27 332.62 443.218 332.844C443.166 333.068 443.163 333.299 443.21 333.524C443.283 333.907 443.494 334.253 443.806 334.503C444.118 334.752 444.511 334.889 444.918 334.89H447.08C447.661 334.89 448.219 335.106 448.636 335.492C449.054 335.879 449.298 336.405 449.318 336.961C449.339 337.521 449.13 338.066 448.736 338.48C448.342 338.895 447.794 339.144 447.21 339.177L444.81 339.311C444.695 339.318 444.583 339.348 444.482 339.4C444.38 339.451 444.292 339.523 444.222 339.611C444.152 339.698 444.103 339.799 444.078 339.906C444.052 340.014 444.051 340.125 444.075 340.233C444.075 340.233 443.793 341.278 446.507 342.034Z" fill="#F9B499"/>
<path opacity="0.4" d="M836.568 121.855H623.932V422.042H836.568V121.855Z" fill="white"/>
<path opacity="0.4" d="M837.358 422.809H623.131V121.131H837.358V422.809ZM624.721 421.287H835.768V122.622H624.721V421.287Z" fill="#2F2E41"/>
<path d="M447.891 324.134C447.891 324.134 447.35 325.78 445.923 325.769L442.388 325.863C442.239 325.879 442.096 325.929 441.971 326.008C441.846 326.088 441.742 326.195 441.668 326.32C441.594 326.445 441.552 326.585 441.546 326.729C441.54 326.872 441.569 327.015 441.631 327.146C441.367 327.055 441.127 326.912 440.926 326.724C440.725 326.537 440.568 326.311 440.465 326.061C440.363 325.811 440.318 325.543 440.332 325.275C440.347 325.007 440.421 324.745 440.55 324.506C440.55 324.506 440.81 323.895 442.799 324.009L447.891 324.134Z" fill="#F7A48B"/>
<path d="M344.74 241.433H218.713V242.955H344.74V241.433Z" fill="#2F2E41"/>
<path d="M211.794 237.044H203.35V245.129H211.794V237.044Z" fill="#4AC4E2"/>
<path d="M344.74 259.096H218.713V260.618H344.74V259.096Z" fill="#2F2E41"/>
<path d="M211.794 254.685H203.35V262.771H211.794V254.685Z" fill="#4AC4E2"/>
<path d="M344.74 276.737H218.713V278.259H344.74V276.737Z" fill="#2F2E41"/>
<path d="M211.794 272.327H203.35V280.413H211.794V272.327Z" fill="#4AC4E2"/>
<path d="M344.74 294.379H218.713V295.901H344.74V294.379Z" fill="#2F2E41"/>
<path d="M211.794 289.989H203.35V298.075H211.794V289.989Z" fill="#4AC4E2"/>
<path d="M187.901 159.82H186.311V326.246H187.901V159.82Z" fill="#2F2E41"/>
<path d="M228.519 224.04C223.077 224.042 217.756 222.498 213.231 219.604C208.705 216.709 205.179 212.594 203.096 207.779C201.014 202.964 200.471 197.666 201.534 192.555C202.598 187.444 205.221 182.75 209.071 179.067C212.922 175.384 217.826 172.878 223.165 171.866C228.503 170.853 234.035 171.38 239.061 173.38C244.086 175.379 248.379 178.761 251.397 183.098C254.414 187.435 256.02 192.532 256.012 197.743C255.998 204.719 253.095 211.404 247.942 216.334C242.788 221.263 235.803 224.035 228.519 224.04ZM228.519 172.886C223.387 172.886 218.37 174.343 214.103 177.073C209.836 179.804 206.511 183.684 204.547 188.224C202.583 192.765 202.069 197.761 203.07 202.581C204.071 207.4 206.542 211.828 210.171 215.303C213.8 218.778 218.423 221.144 223.457 222.103C228.49 223.062 233.707 222.57 238.448 220.689C243.189 218.808 247.242 215.624 250.093 211.537C252.944 207.451 254.466 202.647 254.466 197.733C254.466 191.143 251.732 184.823 246.866 180.163C242 175.504 235.4 172.886 228.519 172.886Z" fill="#2F2E41"/>
<path d="M228.519 204.618C226.487 204.62 224.5 204.045 222.81 202.965C221.119 201.886 219.801 200.35 219.022 198.553C218.243 196.756 218.038 194.779 218.433 192.87C218.828 190.961 219.806 189.208 221.242 187.831C222.677 186.455 224.508 185.517 226.5 185.137C228.493 184.756 230.558 184.951 232.436 185.695C234.313 186.439 235.918 187.699 237.047 189.317C238.176 190.935 238.779 192.837 238.779 194.782C238.779 197.389 237.698 199.889 235.774 201.733C233.85 203.578 231.241 204.615 228.519 204.618ZM228.519 186.469C226.808 186.469 225.136 186.955 223.714 187.865C222.291 188.775 221.183 190.068 220.528 191.582C219.873 193.095 219.702 194.761 220.036 196.367C220.37 197.974 221.193 199.45 222.403 200.608C223.612 201.766 225.154 202.555 226.831 202.875C228.509 203.194 230.248 203.03 231.829 202.403C233.409 201.776 234.76 200.715 235.71 199.353C236.66 197.991 237.168 196.389 237.168 194.751C237.168 192.555 236.256 190.448 234.634 188.895C233.012 187.342 230.813 186.469 228.519 186.469Z" fill="#2F2E41"/>
<path d="M228.519 224.04C222.538 224.051 216.72 222.173 211.967 218.698L211.567 218.429L211.653 217.973C212.318 214.154 214.376 210.684 217.461 208.181C220.547 205.678 224.459 204.305 228.502 204.305C232.546 204.305 236.458 205.678 239.544 208.181C242.629 210.684 244.687 214.154 245.352 217.973L245.428 218.429L245.038 218.698C240.292 222.164 234.488 224.041 228.519 224.04ZM213.329 217.777C217.741 220.859 223.062 222.52 228.524 222.52C233.986 222.52 239.307 220.859 243.719 217.777C243.02 214.41 241.124 211.379 238.353 209.201C235.582 207.024 232.109 205.833 228.524 205.833C224.939 205.833 221.466 207.024 218.695 209.201C215.924 211.379 214.028 214.41 213.329 217.777Z" fill="#2F2E41"/>
<path d="M147.207 208.883C144.509 208.885 141.871 208.121 139.626 206.688C137.381 205.254 135.631 203.216 134.596 200.83C133.561 198.444 133.288 195.817 133.811 193.283C134.335 190.748 135.631 188.419 137.537 186.59C139.442 184.761 141.871 183.514 144.517 183.007C147.163 182.499 149.906 182.754 152.4 183.74C154.894 184.725 157.027 186.397 158.529 188.543C160.031 190.689 160.836 193.213 160.84 195.797C160.843 199.263 159.408 202.589 156.852 205.042C154.296 207.496 150.826 208.878 147.207 208.883ZM147.207 184.284C144.82 184.28 142.486 184.954 140.499 186.221C138.512 187.487 136.962 189.29 136.045 191.4C135.129 193.51 134.886 195.834 135.348 198.076C135.81 200.318 136.957 202.379 138.642 203.997C140.328 205.616 142.476 206.719 144.817 207.168C147.157 207.616 149.584 207.39 151.79 206.518C153.996 205.646 155.882 204.166 157.21 202.267C158.538 200.368 159.248 198.134 159.251 195.849C159.251 192.787 157.983 189.85 155.725 187.683C153.467 185.515 150.404 184.293 147.207 184.284Z" fill="#2F2E41"/>
<path d="M147.207 199.555C146.151 199.545 145.121 199.236 144.248 198.666C143.376 198.097 142.698 197.293 142.301 196.356C141.905 195.419 141.806 194.39 142.019 193.399C142.231 192.409 142.745 191.5 143.496 190.789C144.246 190.077 145.2 189.594 146.237 189.401C147.273 189.207 148.346 189.312 149.321 189.701C150.296 190.09 151.128 190.747 151.714 191.589C152.3 192.43 152.612 193.419 152.612 194.43C152.598 195.794 152.022 197.098 151.01 198.057C149.998 199.017 148.631 199.555 147.207 199.555ZM147.207 190.838C146.462 190.838 145.734 191.049 145.115 191.446C144.497 191.842 144.014 192.405 143.73 193.064C143.445 193.723 143.372 194.448 143.518 195.147C143.664 195.847 144.023 196.489 144.55 196.992C145.078 197.495 145.749 197.838 146.479 197.976C147.21 198.114 147.967 198.041 148.654 197.766C149.341 197.492 149.928 197.029 150.34 196.435C150.752 195.841 150.971 195.143 150.969 194.43C150.969 193.958 150.872 193.49 150.683 193.053C150.493 192.617 150.216 192.22 149.867 191.886C149.517 191.553 149.102 191.288 148.646 191.108C148.189 190.928 147.7 190.837 147.207 190.838Z" fill="#2F2E41"/>
<path d="M147.207 208.883C144.244 208.894 141.36 207.97 139.001 206.254L138.612 205.964V205.508C138.969 203.595 140.018 201.863 141.574 200.615C143.131 199.368 145.096 198.684 147.126 198.684C149.155 198.684 151.121 199.368 152.677 200.615C154.233 201.863 155.282 203.595 155.64 205.508V205.964L155.25 206.254C152.932 207.932 150.113 208.854 147.207 208.883ZM140.352 205.311C142.373 206.626 144.759 207.329 147.201 207.329C149.644 207.329 152.03 206.626 154.05 205.311C153.677 203.842 152.799 202.535 151.557 201.6C150.315 200.666 148.781 200.158 147.201 200.158C145.622 200.158 144.088 200.666 142.846 201.6C141.604 202.535 140.726 203.842 140.352 205.311Z" fill="#2F2E41"/>
<path d="M147.207 260.431C144.506 260.435 141.864 259.672 139.616 258.238C137.368 256.804 135.614 254.764 134.577 252.376C133.54 249.988 133.266 247.358 133.789 244.821C134.313 242.283 135.611 239.951 137.518 238.12C139.426 236.289 141.858 235.041 144.507 234.533C147.155 234.026 149.902 234.282 152.398 235.27C154.895 236.257 157.029 237.932 158.532 240.081C160.035 242.23 160.838 244.758 160.84 247.345C160.84 250.81 159.405 254.134 156.849 256.587C154.293 259.041 150.825 260.423 147.207 260.431ZM147.207 235.812C144.82 235.808 142.486 236.481 140.499 237.748C138.512 239.015 136.962 240.817 136.045 242.927C135.129 245.038 134.886 247.361 135.348 249.603C135.81 251.846 136.957 253.906 138.642 255.525C140.328 257.143 142.476 258.246 144.817 258.695C147.157 259.143 149.584 258.917 151.79 258.045C153.996 257.173 155.882 255.693 157.21 253.794C158.538 251.895 159.248 249.662 159.251 247.376C159.253 244.313 157.987 241.375 155.728 239.207C153.47 237.038 150.405 235.817 147.207 235.812Z" fill="#2F2E41"/>
<path d="M147.207 251.072C146.151 251.062 145.121 250.753 144.248 250.183C143.376 249.614 142.698 248.81 142.301 247.873C141.905 246.936 141.806 245.907 142.019 244.916C142.231 243.925 142.745 243.017 143.496 242.306C144.246 241.594 145.2 241.111 146.237 240.917C147.273 240.724 148.346 240.828 149.321 241.218C150.296 241.607 151.128 242.264 151.714 243.106C152.3 243.947 152.612 244.936 152.612 245.947C152.598 247.311 152.022 248.615 151.01 249.574C149.998 250.534 148.631 251.072 147.207 251.072ZM147.207 242.344C146.463 242.344 145.735 242.556 145.117 242.952C144.498 243.347 144.016 243.91 143.731 244.568C143.446 245.227 143.372 245.951 143.517 246.65C143.662 247.349 144.02 247.991 144.546 248.495C145.073 248.999 145.743 249.342 146.473 249.481C147.203 249.62 147.959 249.549 148.647 249.276C149.334 249.003 149.922 248.541 150.335 247.949C150.748 247.356 150.969 246.66 150.969 245.947C150.969 244.992 150.573 244.075 149.867 243.4C149.162 242.724 148.205 242.344 147.207 242.344Z" fill="#2F2E41"/>
<path d="M147.207 260.431C144.243 260.429 141.361 259.498 139.001 257.781L138.612 257.501V257.056C138.969 255.143 140.018 253.411 141.574 252.163C143.131 250.916 145.096 250.232 147.126 250.232C149.155 250.232 151.121 250.916 152.677 252.163C154.233 253.411 155.282 255.143 155.64 257.056V257.501L155.25 257.781C152.934 259.465 150.115 260.394 147.207 260.431ZM140.352 256.839C142.37 258.159 144.757 258.865 147.201 258.865C149.645 258.865 152.032 258.159 154.05 256.839C153.677 255.369 152.799 254.062 151.557 253.128C150.315 252.193 148.781 251.685 147.201 251.685C145.622 251.685 144.088 252.193 142.846 253.128C141.604 254.062 140.726 255.369 140.352 256.839Z" fill="#2F2E41"/>
<path d="M147.207 311.927C144.506 311.931 141.864 311.168 139.616 309.734C137.368 308.301 135.614 306.26 134.577 303.872C133.54 301.484 133.266 298.854 133.789 296.317C134.313 293.779 135.611 291.447 137.518 289.616C139.426 287.785 141.858 286.537 144.507 286.029C147.155 285.522 149.902 285.778 152.398 286.766C154.895 287.753 157.029 289.428 158.532 291.577C160.035 293.726 160.838 296.254 160.84 298.841C160.84 302.306 159.405 305.63 156.849 308.083C154.293 310.537 150.825 311.919 147.207 311.927ZM147.207 287.308C144.82 287.304 142.486 287.977 140.499 289.244C138.512 290.511 136.962 292.313 136.045 294.423C135.129 296.534 134.886 298.857 135.348 301.099C135.81 303.342 136.957 305.402 138.642 307.021C140.328 308.639 142.476 309.742 144.817 310.191C147.157 310.64 149.584 310.413 151.79 309.541C153.996 308.669 155.882 307.19 157.21 305.29C158.538 303.391 159.248 301.158 159.251 298.872C159.248 295.811 157.979 292.876 155.722 290.709C153.465 288.542 150.403 287.319 147.207 287.308Z" fill="#2F2E41"/>
<path d="M147.207 302.578C146.15 302.568 145.121 302.259 144.247 301.689C143.374 301.119 142.697 300.315 142.3 299.377C141.904 298.439 141.806 297.41 142.02 296.419C142.233 295.428 142.748 294.52 143.5 293.808C144.251 293.097 145.206 292.615 146.243 292.423C147.28 292.23 148.354 292.336 149.329 292.727C150.303 293.118 151.135 293.777 151.719 294.62C152.304 295.463 152.615 296.452 152.612 297.464C152.595 298.826 152.018 300.127 151.006 301.084C149.995 302.042 148.629 302.579 147.207 302.578ZM147.207 293.861C146.463 293.861 145.735 294.073 145.117 294.468C144.498 294.864 144.016 295.427 143.731 296.085C143.446 296.744 143.372 297.468 143.517 298.167C143.662 298.866 144.02 299.508 144.546 300.012C145.073 300.516 145.743 300.859 146.473 300.998C147.203 301.137 147.959 301.065 148.647 300.793C149.334 300.52 149.922 300.058 150.335 299.466C150.748 298.873 150.969 298.177 150.969 297.464C150.969 296.509 150.573 295.592 149.867 294.916C149.162 294.241 148.205 293.861 147.207 293.861Z" fill="#2F2E41"/>
<path d="M147.207 311.927C144.243 311.936 141.358 311.008 139.001 309.287L138.612 308.997V308.521C138.943 306.582 139.984 304.819 141.547 303.547C143.111 302.275 145.096 301.576 147.147 301.576C149.199 301.576 151.184 302.275 152.748 303.547C154.311 304.819 155.352 306.582 155.683 308.521V308.966L155.294 309.256C152.971 310.962 150.133 311.899 147.207 311.927ZM140.352 308.345C142.373 309.66 144.759 310.363 147.201 310.363C149.644 310.363 152.03 309.66 154.05 308.345C153.677 306.875 152.799 305.569 151.557 304.634C150.315 303.7 148.781 303.192 147.201 303.192C145.622 303.192 144.088 303.7 142.846 304.634C141.604 305.569 140.726 306.875 140.352 308.345Z" fill="#2F2E41"/>
<path d="M337.216 182.369H269.602V183.891H337.216V182.369Z" fill="#2F2E41"/>
<path d="M337.216 197.257H269.602V198.779H337.216V197.257Z" fill="#2F2E41"/>
<path d="M337.216 212.155H269.602V213.677H337.216V212.155Z" fill="#2F2E41"/>
<path d="M289.689 540.233C327.306 540.233 357.8 511.031 357.8 475.009C357.8 438.986 327.306 409.784 289.689 409.784C252.072 409.784 221.578 438.986 221.578 475.009C221.578 511.031 252.072 540.233 289.689 540.233Z" fill="white"/>
<path d="M289.743 540.989C276.116 540.989 262.795 537.119 251.464 529.869C240.133 522.619 231.302 512.314 226.087 500.258C220.872 488.202 219.508 474.935 222.167 462.137C224.825 449.338 231.387 437.581 241.023 428.354C250.659 419.126 262.936 412.842 276.301 410.296C289.667 407.751 303.52 409.057 316.11 414.051C328.7 419.045 339.461 427.502 347.032 438.352C354.603 449.202 358.644 461.959 358.644 475.009C358.644 483.673 356.861 492.253 353.399 500.258C349.936 508.263 344.861 515.537 338.463 521.664C332.065 527.79 324.47 532.65 316.11 535.966C307.751 539.282 298.791 540.989 289.743 540.989ZM289.743 410.54C276.431 410.542 263.418 414.324 252.35 421.408C241.282 428.492 232.656 438.56 227.563 450.338C222.47 462.117 221.139 475.077 223.737 487.58C226.336 500.083 232.747 511.567 242.162 520.581C251.576 529.594 263.569 535.732 276.626 538.219C289.683 540.705 303.216 539.428 315.515 534.549C327.814 529.67 338.326 521.408 345.722 510.808C353.118 500.208 357.065 487.746 357.065 474.998C357.039 457.912 349.937 441.532 337.316 429.454C324.695 417.376 307.586 410.585 289.743 410.571V410.54Z" fill="#4AC4E2"/>
<path d="M362.655 560.504H219.156V562.026H362.655V560.504Z" fill="#2F2E41"/>
<path d="M362.655 574.481H219.156V576.003H362.655V574.481Z" fill="#2F2E41"/>
<path d="M362.655 598.003H236.627V599.525H362.655V598.003Z" fill="#2F2E41"/>
<path d="M229.73 593.603H221.286V601.689H229.73V593.603Z" fill="#4AC4E2"/>
<path d="M362.655 615.645H236.627V617.167H362.655V615.645Z" fill="#2F2E41"/>
<path d="M229.73 611.255H221.286V619.341H229.73V611.255Z" fill="#4AC4E2"/>
<path d="M362.655 633.286H236.627V634.808H362.655V633.286Z" fill="#2F2E41"/>
<path d="M229.73 628.897H221.286V636.982H229.73V628.897Z" fill="#4AC4E2"/>
<path d="M362.655 650.928H236.627V652.45H362.655V650.928Z" fill="#2F2E41"/>
<path d="M229.73 646.538H221.286V654.624H229.73V646.538Z" fill="#4AC4E2"/>
<path d="M274.607 431.723C277.705 427.231 281.96 423.58 286.962 421.124C291.964 418.669 297.543 417.491 303.16 417.704C322.869 418.315 327.648 438.98 326.945 445.057C326.632 448.551 325.657 451.961 324.069 455.12L315.485 448.111C321.393 453.74 325.988 460.504 328.967 467.958C333.724 480.113 331.442 495.911 325.399 499.566C319.355 503.221 315.225 501.699 315.225 501.699L315.863 493.468C315.863 493.468 310.144 503.21 300.608 505.033C291.073 506.855 263.731 508.076 259.59 503.521C257.096 500.717 255.352 497.373 254.509 493.779L253.882 501.699C253.882 501.699 245.298 495.611 244.973 488.592C244.649 481.572 249.103 471.882 251.32 466.685C253.536 461.488 255.136 458.765 255.763 450.845C256.39 442.925 255.45 438.69 261.169 433.493C266.888 428.296 274.607 431.723 274.607 431.723Z" fill="#2F2E41"/>
<path d="M261.353 514.764C256.088 516.939 247.568 518.906 241.773 521.339C254.487 533.393 271.643 540.174 289.534 540.214C307.426 540.255 324.615 533.553 337.389 521.556C335.162 520.508 332.829 519.682 330.426 519.092C320.242 516.39 305.765 508.459 304.068 505.747C302.371 503.034 300.706 493.592 300.706 493.592L277.17 490.559C277.17 490.559 278.348 502.351 278.348 504.525C278.348 506.699 269.288 511.514 261.353 514.764Z" fill="#F9B499"/>
<path d="M315.366 513.087L290.705 535.471L266.812 512.342C265.018 513.201 263.158 514.019 261.407 514.764C256.142 516.939 247.622 518.906 241.827 521.339C254.541 533.393 271.697 540.174 289.588 540.214C307.48 540.255 324.669 533.553 337.443 521.556C335.216 520.508 332.883 519.682 330.48 519.092C325.241 517.59 320.177 515.578 315.366 513.087Z" fill="#4AC4E2"/>
<path d="M798.61 302.371H655.111V303.893H798.61V302.371Z" fill="#2F2E41"/>
<path d="M798.61 316.348H655.111V317.87H798.61V316.348Z" fill="#2F2E41"/>
<path d="M798.621 339.87H672.593V341.392H798.621V339.87Z" fill="#2F2E41"/>
<path d="M665.685 335.46H657.241V343.546H665.685V335.46Z" fill="#4AC4E2"/>
<path d="M798.621 357.512H672.593V359.034H798.621V357.512Z" fill="#2F2E41"/>
<path d="M665.685 353.122H657.241V361.208H665.685V353.122Z" fill="#4AC4E2"/>
<path d="M798.621 375.153H672.593V376.675H798.621V375.153Z" fill="#2F2E41"/>
<path d="M665.685 370.764H657.241V378.849H665.685V370.764Z" fill="#4AC4E2"/>
<path d="M798.621 392.795H672.593V394.317H798.621V392.795Z" fill="#2F2E41"/>
<path d="M665.685 388.405H657.241V396.491H665.685V388.405Z" fill="#4AC4E2"/>
<path d="M725.666 282.1C763.283 282.1 793.777 252.898 793.777 216.876C793.777 180.854 763.283 151.652 725.666 151.652C688.049 151.652 657.555 180.854 657.555 216.876C657.555 252.898 688.049 282.1 725.666 282.1Z" fill="white"/>
<path d="M690.216 245.502L673.231 258.516C684.758 271.819 701.328 280.197 719.301 281.808C737.274 283.42 755.179 278.133 769.084 267.109C772.01 264.793 774.727 262.244 777.203 259.489L751.462 243.369L690.216 245.502Z" fill="#4AC4E2"/>
<path d="M711.525 227.084C711.525 227.084 696.562 228.948 692.389 234.776C688.216 240.605 685.178 246.165 688.226 249.654C693.272 254.872 698.858 259.586 704.897 263.723C709.881 266.912 717.666 277.814 717.666 277.814C718.285 273.232 718.646 268.622 718.747 264.003C718.747 258.153 713.471 251.838 712.4 246.465C711.33 241.092 720.444 232.664 726.801 235.304C733.158 237.944 738.185 245.947 737.915 249.654C737.645 253.36 738.996 257.936 740.402 264.262C741.807 270.588 742.899 276.095 742.899 276.095C742.899 276.095 752.316 266.974 755.386 257.087C758.457 247.2 756.965 237.178 745.656 230.542C734.347 223.906 711.525 227.084 711.525 227.084Z" fill="#4AC4E2"/>
<path opacity="0.2" d="M711.525 227.084C711.525 227.084 696.562 228.948 692.389 234.776C688.216 240.605 685.178 246.165 688.226 249.654C693.272 254.872 698.858 259.586 704.897 263.723C709.881 266.912 717.666 277.814 717.666 277.814C718.285 273.232 718.646 268.622 718.747 264.003C718.747 258.153 713.471 251.838 712.4 246.465C711.33 241.092 720.444 232.664 726.801 235.304C733.158 237.944 738.185 245.947 737.915 249.654C737.645 253.36 738.996 257.936 740.402 264.262C741.807 270.588 742.899 276.095 742.899 276.095C742.899 276.095 752.316 266.974 755.386 257.087C758.457 247.2 756.965 237.178 745.656 230.542C734.347 223.906 711.525 227.084 711.525 227.084Z" fill="white"/>
<path opacity="0.2" d="M750.543 234.165C749.062 232.781 747.418 231.565 745.645 230.542C734.261 223.895 711.525 227.084 711.525 227.084C711.525 227.084 696.562 228.948 692.389 234.776C691.913 235.46 691.437 236.143 690.994 236.847C690.462 240.419 691.353 244.053 693.492 247.024C699.719 256.507 712.541 261.052 718.714 263.744C718.52 257.998 713.438 251.766 712.368 246.558C711.298 241.35 720.412 232.757 726.769 235.397C733.126 238.038 738.153 246.04 737.883 249.747C737.612 253.453 738.964 258.029 740.369 264.345L740.607 265.504C741.083 265.059 741.559 264.603 742.034 264.086C748.198 257.615 751.568 249.145 751.462 240.388C751.462 238.283 751.153 236.188 750.543 234.165Z" fill="white"/>
<path d="M709.027 216.721C709.027 216.721 710.703 235.843 711.254 241.164C711.806 246.486 714.855 260.017 724.228 262.657C733.601 265.297 739.202 254.975 737.829 247.272C736.456 239.57 733.958 232.395 733.958 229.734C734.024 228.578 733.926 227.418 733.666 226.287L709.027 216.721Z" fill="#F9B499"/>
<path d="M733.71 226.235L709.027 216.679C709.027 216.679 710.303 231.225 710.984 238.472L734.012 229.279C734.041 228.256 733.94 227.234 733.71 226.235Z" fill="#F7A48B"/>
<path d="M739.558 180.92C739.558 180.92 743.991 204.266 743.991 208.521C743.991 212.776 739.926 225.148 738.088 227.974C736.25 230.801 726.974 232.53 723.309 231.142C719.644 229.755 709.254 220.51 707.092 216.648C705.761 214.31 704.768 211.809 704.141 209.215C704.141 209.215 698.962 211.347 694.908 205.674C690.854 200 693.059 194.72 697.07 194.368L700.768 195.404C700.768 195.404 694.119 184.44 696.324 179.491C698.53 174.542 725.147 172.772 730.682 172.772C736.218 172.772 739.558 180.92 739.558 180.92Z" fill="#F9B499"/>
<path d="M742.434 216.296C742.434 216.296 741.721 208.231 740.034 207.071C738.348 205.912 725.752 206.844 725.752 206.844C725.752 206.844 713.06 203.396 712.779 206.16C712.595 208.231 713.168 218.988 713.698 224.03C717.255 227.301 721.266 230.387 723.223 231.142C726.909 232.561 736.196 230.801 738.002 227.974C739.854 224.25 741.303 220.355 742.326 216.348L742.434 216.296ZM739.548 217.683C738.099 222.239 734.974 225.055 733.537 224.371C732.099 223.688 730.877 219.288 729.677 218.833C728.477 218.377 727.515 220.675 726.077 222.756C724.639 224.837 720.779 225.521 719.093 224.144C717.406 222.767 715.471 210.074 715.471 208.459C715.471 206.844 733.061 209.391 733.061 209.391C734.896 209.165 736.748 209.088 738.596 209.163C739.785 209.391 740.986 213.076 739.548 217.683Z" fill="#2F2E41"/>
<path d="M694.865 165.711C694.865 165.711 685.34 174.832 688.962 182.7C692.583 190.569 701.935 204.959 701.935 204.959H703.773L703.406 198.882C703.406 198.882 709.309 196.812 708.173 191.821C707.535 188.894 706.281 186.122 704.487 183.674C704.487 183.674 710.833 188.229 718.152 187.214C725.471 186.2 728.866 177.669 731.45 180.495C734.034 183.322 738.099 185.061 745.84 181.199C753.581 177.338 758.532 164.137 750.067 158.826C741.602 153.515 733.656 158.226 729.223 159.271C724.79 160.317 721.471 153.194 711.503 156.093C705.241 157.994 699.539 161.29 694.865 165.711Z" fill="#2F2E41"/>
<path d="M725.666 282.856C712.038 282.86 698.715 278.994 687.382 271.747C676.049 264.5 667.214 254.197 661.996 242.142C656.777 230.087 655.409 216.82 658.064 204.02C660.72 191.22 667.279 179.462 676.913 170.232C686.547 161.002 698.823 154.715 712.188 152.166C725.553 149.618 739.408 150.922 751.999 155.913C764.59 160.905 775.353 169.36 782.926 180.21C790.499 191.059 794.543 203.815 794.545 216.866C794.528 234.357 787.266 251.127 774.354 263.499C761.441 275.87 743.931 282.831 725.666 282.856ZM725.666 152.407C712.35 152.401 699.331 156.177 688.256 163.256C677.181 170.336 668.547 180.402 663.446 192.181C658.346 203.96 657.007 216.923 659.6 229.43C662.193 241.938 668.602 253.428 678.014 262.447C687.427 271.467 699.422 277.611 712.481 280.102C725.54 282.593 739.078 281.32 751.382 276.443C763.685 271.566 774.202 263.304 781.602 252.703C789.002 242.102 792.953 229.638 792.956 216.886C792.938 199.799 785.844 183.417 773.229 171.333C760.614 159.249 743.509 152.45 725.666 152.428V152.407Z" fill="#4AC4E2"/>
<path d="M302.122 500.187L300.673 493.489L277.137 490.445C277.137 490.445 284.24 503.386 302.122 500.187Z" fill="#F7A48B"/>
<path d="M271.148 464.324C271.148 464.324 273.05 450.648 277.494 443.318C281.937 435.988 291.484 438.141 295.3 440.574C299.117 443.007 305.149 456.104 308.609 464.614C312.068 473.124 313.69 478.001 313.69 478.001C313.69 478.001 308.198 489.099 300.717 493.53C292.781 498.272 284.024 498.086 277.18 490.486C274.826 487.841 272.901 484.871 271.472 481.676C271.472 481.676 263.536 479.233 261.623 472.845C259.709 466.457 261.299 463.092 264.477 462.212C267.656 461.332 271.148 464.324 271.148 464.324Z" fill="#F9B499"/>
<path d="M414.668 143.255H105.237V159.385H414.668V143.255Z" fill="#4AC4E2"/>
<path d="M381.196 237.654C398.601 237.654 412.711 224.143 412.711 207.475C412.711 190.808 398.601 177.296 381.196 177.296C363.791 177.296 349.681 190.808 349.681 207.475C349.681 224.143 363.791 237.654 381.196 237.654Z" fill="#4AC4E2"/>
<path d="M398.602 232.633L439.101 277.928L444.529 273.901L404.548 227.736L401.446 227.395L397.899 230.511L398.602 232.633Z" fill="#4AC4E2"/>
<path d="M381.196 232.323C395.526 232.323 407.143 221.198 407.143 207.475C407.143 193.752 395.526 182.628 381.196 182.628C366.866 182.628 355.249 193.752 355.249 207.475C355.249 221.198 366.866 232.323 381.196 232.323Z" fill="white"/>
<path d="M632.516 573.135C626.625 569.603 619.968 567.411 613.055 566.726C609.931 566.416 606.396 566.509 603.855 568.342C603.561 568.506 603.319 568.742 603.152 569.026C602.984 569.31 602.899 569.631 602.903 569.957C603.061 570.411 603.383 570.797 603.812 571.044C607.938 573.858 612.789 575.539 617.841 575.904C622.892 576.268 627.952 575.304 632.472 573.114" fill="#4AC4E2"/>
<path d="M632.018 572.524C627.525 569.372 623.332 565.845 619.488 561.985C615.628 558.089 612.912 553.285 611.617 548.06C611.366 547.286 611.292 546.469 611.401 545.665C611.509 544.861 611.797 544.089 612.244 543.401C622.256 550.866 630.105 560.556 632.04 572.555" fill="#4AC4E2"/>
<path d="M632.462 573.011C631.53 567.782 631.61 562.433 632.699 557.233C633.82 551.997 636.948 547.354 641.468 544.219C643.197 548.091 642.451 552.553 641.24 556.642C639.321 562.888 636.356 568.793 632.462 574.129" fill="#4AC4E2"/>
<path d="M642.192 589.834C636.309 590.733 630.867 593.368 626.623 597.371C622.157 601.263 619.044 606.372 617.704 612.011C623.542 611.669 628.515 607.724 632.094 603.304C635.673 598.883 638.17 593.986 642.116 589.845" fill="#4AC4E2"/>
<path d="M644.354 592.537C642.012 586.841 641.191 580.676 641.965 574.6C642.739 568.524 645.084 562.729 648.787 557.74C652.181 569.284 650.949 582.328 644.354 592.537Z" fill="#4AC4E2"/>
<path d="M657.328 607.3C651.899 606.989 646.495 608.211 641.785 610.813C637.075 613.415 633.265 617.284 630.829 621.939C630.617 622.225 630.489 622.561 630.458 622.91C630.428 623.26 630.496 623.611 630.656 623.927C630.885 624.142 631.165 624.299 631.473 624.386C631.78 624.472 632.105 624.486 632.418 624.424C637.651 624.103 642.278 621.09 646.116 617.643C649.954 614.195 653.284 610.251 657.511 607.29" fill="#4AC4E2"/>
<path d="M656.874 606.492C654.084 597.896 653.912 588.717 656.376 580.03C657.36 576.614 659.003 573.031 662.29 571.437C662.38 571.363 662.485 571.306 662.599 571.271C662.712 571.236 662.832 571.223 662.951 571.233C663.069 571.242 663.185 571.274 663.291 571.327C663.396 571.38 663.49 571.453 663.566 571.541C663.657 571.649 663.72 571.777 663.75 571.913C664.862 574.297 665.341 576.908 665.144 579.512C664.955 582.101 664.543 584.671 663.912 587.194C662.831 591.895 662.355 596.937 659.587 600.985C658.958 601.944 658.391 602.94 657.89 603.966C657.371 605.002 657.371 605.374 656.906 606.182" fill="#4AC4E2"/>
<path d="M691.167 611.379C690.018 606.551 689.981 601.541 691.058 596.698C692.135 591.854 694.301 587.294 697.405 583.333C697.859 582.763 698.486 582.163 699.178 582.235C700.259 582.329 700.594 583.737 700.551 584.834C700.098 594.348 696.857 603.547 691.199 611.379" fill="#4AC4E2"/>
<path d="M694.259 613.439C700.257 614.788 706.488 614.877 712.525 613.701C718.563 612.525 724.262 610.112 729.234 606.627C723.386 603.8 716.696 603.002 710.303 604.37C703.978 605.747 698.216 608.511 694.27 613.408" fill="#4AC4E2"/>
<path d="M696.854 607.238C700.323 602.115 705.008 597.85 710.526 594.792C716.045 591.733 722.24 589.967 728.607 589.638C727.158 594.524 722.952 598.324 718.228 600.622C713.377 602.714 708.247 604.153 702.984 604.898C700.962 605.271 698.184 605.685 696.854 607.207" fill="#4AC4E2"/>
<path d="M691.827 577.338C693.812 571.559 695.171 565.598 695.881 559.552C696.574 553.46 695.282 547.313 692.183 541.951C686.042 553.34 685.415 566.623 691.643 577.97" fill="#4AC4E2"/>
<path d="M712.465 567.348C719.644 554.831 734.283 544.85 749.116 543.463C743.397 557.088 727.817 567.627 712.465 567.348Z" fill="#4AC4E2"/>
<path d="M707.968 569.791C718.693 571.354 727.817 577.897 737.818 581.883C739.922 582.842 742.25 583.263 744.575 583.105C745.656 583.09 746.706 582.757 747.583 582.15C748.459 581.544 749.119 580.694 749.474 579.716C749.828 578.737 749.859 577.678 749.563 576.682C749.267 575.687 748.658 574.802 747.818 574.15C746.405 572.897 744.743 571.929 742.932 571.302C732.012 566.954 720.325 566.82 708.833 569.48" fill="#4AC4E2"/>
<path d="M701.784 576.986C704.205 577.638 705.027 578.85 706.962 580.413C713.51 585.743 721.254 589.555 729.59 591.553C730.445 591.76 731.591 591.833 732.012 591.087C732.154 590.727 732.174 590.333 732.07 589.962C731.965 589.59 731.74 589.259 731.428 589.017C727.791 584.932 723.07 581.863 717.763 580.134C712.541 578.27 708.033 575.992 701.784 576.51" fill="#4AC4E2"/>
<path d="M694.789 533.535C699.178 537.409 704.363 540.363 710.014 542.207C715.664 544.05 721.655 544.743 727.601 544.24C728.173 544.25 728.73 544.062 729.169 543.712C729.99 542.863 728.996 541.537 728.023 540.73C718.379 533.534 706.692 530.532 694.821 533.483" fill="#4AC4E2"/>
<path d="M703.081 530.625C708.895 526.531 715.637 523.81 722.758 522.684C729.878 521.558 737.176 522.058 744.056 524.144C738.7 528.91 731.819 531.803 724.531 532.354C717.33 532.989 710.069 532.404 703.081 530.625Z" fill="#4AC4E2"/>
<path d="M699.795 510.665C698.843 501.43 699.449 494.1 698.778 484.875C698.778 484.14 698.562 483.25 697.838 482.981C696.832 482.608 695.989 483.798 695.675 484.782C694.276 489.08 693.919 493.626 694.633 498.076C695.347 502.526 697.112 506.76 699.795 510.458" fill="#4AC4E2"/>
<path d="M699.092 511.679C705.379 507.784 710.802 502.739 715.049 496.833C718.163 492.692 720.866 487.743 720.141 482.68C717.923 482.736 715.744 483.255 713.755 484.199C711.767 485.143 710.017 486.49 708.627 488.147C705.871 491.49 703.865 495.343 702.735 499.463C701.459 503.521 700.573 507.693 699.059 511.679" fill="#4AC4E2"/>
<path d="M714.768 507.455C729.141 502.361 742.45 494.851 754.067 485.279C749.386 483.477 743.991 484.565 739.299 486.314C728.633 490.203 719.831 497.708 714.563 507.403" fill="#4AC4E2"/>
<path d="M703.503 516.731C710.736 517.718 718.077 517.753 725.32 516.835C732.401 515.696 739.083 513.015 745.688 510.354C746.269 510.183 746.765 509.815 747.083 509.319C747.188 509.027 747.196 508.712 747.107 508.415C747.018 508.119 746.836 507.856 746.586 507.662C746.07 507.279 745.472 507.011 744.834 506.875C737.537 505.19 729.879 505.63 722.844 508.138C716.105 510.341 709.626 513.214 703.514 516.711" fill="#4AC4E2"/>
<path d="M662.085 533.845C659.754 529.066 658.517 523.864 658.458 518.589C658.398 513.315 659.517 508.089 661.739 503.262C664.755 507.652 665.112 513.253 664.56 518.471C664.009 523.689 662.398 529.072 662.236 534.321" fill="#4AC4E2"/>
<path d="M642.322 524.31C636.131 524.225 629.991 525.379 624.292 527.696C618.594 530.014 613.463 533.444 609.228 537.769C615.471 538.474 621.791 537.355 627.359 534.559C632.887 531.742 638.109 528.406 642.949 524.6" fill="#4AC4E2"/>
<path d="M629.045 520.044C622.991 519.579 617.153 518.864 611.369 520.562C608.427 521.346 605.698 522.73 603.367 524.619C601.036 526.508 599.16 528.857 597.865 531.505C603.569 531.952 609.294 530.923 614.439 528.524C619.553 526.125 624.43 523.291 629.013 520.055" fill="#4AC4E2"/>
<path d="M648.679 520.231C643.273 516.835 637.662 513.356 631.38 511.948C625.099 510.54 617.715 511.576 613.304 516.141C618.429 519.03 624.656 519.372 630.602 519.351C636.548 519.33 643.814 519.351 649.425 521.194" fill="#4AC4E2"/>
<path d="M648.743 520.521C639.392 511.772 635.932 496.087 639.673 484.13C647.002 494.89 650.207 507.751 648.743 520.521Z" fill="#4AC4E2"/>
<path d="M674.301 495.756C676.053 491.843 677.285 487.753 678.853 483.819C680.286 479.789 682.485 476.047 685.34 472.783C688.253 469.508 692.39 467.456 696.865 467.068C695.436 473.09 692.711 478.761 688.863 483.717C685.015 488.673 680.129 492.805 674.518 495.849" fill="#4AC4E2"/>
<path d="M669.739 500.922C666.842 497.081 663.501 491.967 659.555 489.058C655.609 486.149 650.506 484.523 645.706 485.558C648.191 489.73 651.657 493.29 655.828 495.957C660 498.624 664.762 500.324 669.739 500.922Z" fill="#4AC4E2"/>
<path d="M670.593 496.067C668.507 491.511 666.958 486.747 665.977 481.862C665.019 476.918 665.838 471.809 668.301 467.368C673.415 476.603 675.047 486.521 670.831 496.139" fill="#4AC4E2"/>
<path d="M674.41 467.399C677.296 458.247 686.053 451.497 695.502 448.412C696.673 447.955 697.94 447.77 699.2 447.873C699.827 447.944 700.418 448.188 700.902 448.576C701.386 448.964 701.741 449.479 701.924 450.058C702.27 451.549 700.93 453.039 699.665 454.033C692.289 460.116 683.696 464.696 674.41 467.492" fill="#4AC4E2"/>
<path d="M674.41 459.904C674.788 454.013 675.177 447.966 677.177 442.428C679.177 436.889 683.048 431.588 688.659 429.145C689.632 435.108 686.886 441.082 683.567 446.155C680.248 451.228 676.258 456.125 674.215 461.86" fill="#4AC4E2"/>
<path d="M674.301 463.983C671.901 457.305 671.674 448.826 667.49 443.007C664.582 438.949 659.922 436.185 657.392 431.878C655.881 436.007 656.094 440.536 657.987 444.519C659.901 448.465 662.541 452.05 665.782 455.1C668.896 458.257 671.512 460.639 674.431 463.983" fill="#4AC4E2"/>
<path d="M674.41 660.453C674.226 660.453 674.053 615.934 674.053 561.063C674.053 506.192 674.183 461.674 674.366 461.674C674.55 461.674 674.712 506.192 674.723 561.063C674.734 615.934 674.539 660.453 674.41 660.453Z" fill="#2F2E41"/>
<path d="M714.941 527.136C714.375 527.395 713.785 527.603 713.179 527.757L708.379 529.248C704.324 530.584 698.746 532.489 692.702 534.86C686.659 537.231 681.113 539.394 677.869 541.993C676.587 543.016 675.569 544.309 674.896 545.772C674.42 546.807 674.345 547.459 674.28 547.449C674.215 547.439 674.28 547.283 674.28 546.983C674.35 546.542 674.466 546.108 674.626 545.689C675.254 544.181 676.256 542.841 677.545 541.786C679.478 540.21 681.646 538.919 683.978 537.955C686.551 536.806 689.383 535.595 692.443 534.404C698.508 532.023 704.119 530.18 708.217 528.948C710.271 528.337 711.946 527.913 713.114 527.592C713.706 527.384 714.318 527.231 714.941 527.136Z" fill="#2F2E41"/>
<path d="M728.282 495.818C728.14 496.007 727.972 496.177 727.785 496.326L726.304 497.672L720.725 502.506L702.195 518.305C694.962 524.517 688.702 530.366 684.378 534.808C682.215 537.013 680.507 538.846 679.339 540.129L677.988 541.62C677.841 541.803 677.67 541.966 677.48 542.107C677.594 541.903 677.732 541.712 677.891 541.537C678.277 541.019 678.692 540.521 679.134 540.047C680.215 538.711 681.891 536.837 684.032 534.57C689.629 528.716 695.543 523.149 701.751 517.891C709.006 511.741 715.611 506.223 720.455 502.237L726.174 497.547L727.742 496.295C727.895 496.11 728.077 495.949 728.282 495.818Z" fill="#2F2E41"/>
<path d="M694.378 524.579C694.194 524.486 695.708 521.142 697.221 516.918C698.735 512.694 699.449 509.132 699.654 509.163C699.48 511.892 698.875 514.58 697.859 517.135C697.203 518.957 696.45 520.742 695.6 522.488C695.309 523.242 694.897 523.947 694.378 524.579Z" fill="#2F2E41"/>
<path d="M674.409 551.518C674.018 551.133 673.656 550.721 673.328 550.286L670.474 546.776C668.074 543.784 664.755 539.695 661.047 535.222C657.338 530.749 653.911 526.712 651.425 523.834L648.516 520.386C648.131 519.975 647.791 519.528 647.5 519.051C647.944 519.403 648.353 519.795 648.722 520.22L651.835 523.544C654.409 526.381 657.879 530.366 661.566 534.86C665.252 539.353 668.55 543.505 670.917 546.528C672.074 548.029 672.993 549.292 673.599 550.172C673.923 550.589 674.195 551.041 674.409 551.518Z" fill="#2F2E41"/>
<path d="M665.479 540.564C663.686 538.66 662.409 536.364 661.76 533.876C661.058 531.696 660.765 529.414 660.895 527.136H661.198C661.068 527.644 660.982 527.902 660.917 527.902C660.852 527.902 660.917 527.613 660.917 527.085H661.209C661.361 529.31 661.759 531.514 662.398 533.659C663.246 536.03 664.276 538.338 665.479 540.564Z" fill="#2F2E41"/>
<path d="M653.976 526.712C653.184 526.107 652.311 525.606 651.381 525.221C649.039 524.549 646.573 524.362 644.149 524.672C641.692 524.861 639.255 525.239 636.862 525.801C635.882 526.1 634.881 526.332 633.867 526.494C634.756 525.97 635.727 525.585 636.743 525.356C639.134 524.651 641.6 524.206 644.095 524.03C646.614 523.7 649.179 523.967 651.565 524.807C652.58 525.146 653.435 525.822 653.976 526.712Z" fill="#2F2E41"/>
<path d="M651.263 523.357C651.263 523.461 649.706 522.778 647.273 521.97C640.808 519.845 633.883 519.332 627.153 520.479C624.58 520.904 623.023 521.37 622.991 521.266C623.326 521.069 623.69 520.922 624.072 520.831C625.058 520.51 626.061 520.241 627.078 520.024C630.459 519.316 633.93 519.086 637.381 519.34C640.831 519.592 644.225 520.321 647.457 521.504C648.432 521.867 649.385 522.282 650.311 522.747C650.657 522.906 650.977 523.112 651.263 523.357Z" fill="#2F2E41"/>
<path d="M674.301 509.163C673.113 506.001 672.141 502.767 671.393 499.483C670.413 496.256 669.658 492.971 669.134 489.648C670.322 492.81 671.294 496.044 672.042 499.328C673.006 502.559 673.76 505.844 674.301 509.163Z" fill="#2F2E41"/>
<path d="M674.496 509.163C673.551 507.164 672.467 505.227 671.253 503.366C669.887 501.613 668.288 500.04 666.496 498.686C667.177 498.838 667.811 499.143 668.344 499.576C669.685 500.527 670.853 501.681 671.804 502.993C673.244 504.792 674.171 506.918 674.496 509.163Z" fill="#2F2E41"/>
<path d="M674.41 636.713C674.41 636.713 674.193 635.678 673.685 633.731C672.906 631.066 671.86 628.48 670.561 626.008C666.093 617.959 660.555 610.497 654.084 603.811C650.408 599.773 646.841 595.984 643.814 592.34C641.093 589.145 638.635 585.753 636.462 582.194C635.01 579.81 633.769 577.313 632.754 574.729C632.408 573.808 632.159 573.094 632.018 572.586C631.93 572.337 631.869 572.081 631.835 571.82C631.835 571.82 632.235 572.855 633.002 574.646C634.093 577.223 635.391 579.716 636.884 582.101C639.09 585.608 641.57 588.951 644.3 592.102C647.338 595.705 650.906 599.483 654.603 603.49C661.103 610.236 666.62 617.793 671.004 625.956C672.276 628.462 673.258 631.094 673.934 633.804C674.111 634.538 674.244 635.281 674.334 636.03C674.385 636.254 674.411 636.483 674.41 636.713Z" fill="#2F2E41"/>
<path d="M711.038 597.019C710.428 597.409 709.788 597.755 709.125 598.055C707.386 598.995 705.72 600.053 704.141 601.223C701.806 602.962 699.615 604.873 697.589 606.938C695.286 609.267 692.919 611.969 690.497 614.858C685.664 620.666 681.145 625.822 678.431 629.921C677.058 631.992 676.064 633.669 675.415 634.881C675.091 635.512 674.734 636.133 674.334 636.734C674.351 636.549 674.406 636.37 674.496 636.206C674.669 635.874 674.842 635.367 675.156 634.715C676 632.964 676.953 631.263 678.01 629.621C681.7 624.362 685.696 619.305 689.978 614.475C692.41 611.576 694.811 608.874 697.146 606.544C699.211 604.473 701.461 602.578 703.87 600.881C705.487 599.741 707.205 598.74 709.006 597.889C709.514 597.645 710.038 597.431 710.573 597.247C710.719 597.156 710.875 597.079 711.038 597.019Z" fill="#2F2E41"/>
<path d="M711.827 609.909C710.484 610.186 709.122 610.376 707.752 610.478C704.486 610.805 701.258 611.414 698.108 612.301C694.993 613.27 692.069 614.733 689.459 616.628C687.47 618.119 686.529 619.33 686.432 619.258C686.583 618.927 686.791 618.622 687.048 618.357C687.692 617.597 688.417 616.904 689.21 616.286C691.782 614.231 694.745 612.67 697.935 611.69C701.126 610.776 704.416 610.221 707.741 610.033C709.096 609.87 710.464 609.828 711.827 609.909Z" fill="#2F2E41"/>
<path d="M687.599 617.912C687.394 617.798 689.156 615.117 690.713 611.514C692.27 607.911 692.27 604.691 692.594 604.722C692.687 605.412 692.661 606.111 692.518 606.793C692.322 608.473 691.927 610.126 691.34 611.721C690.725 613.292 689.935 614.795 688.983 616.204C688.627 616.844 688.159 617.422 687.599 617.912Z" fill="#2F2E41"/>
<path d="M722.931 562.461C722.73 562.598 722.512 562.709 722.282 562.792L720.379 563.631C719.536 563.972 718.52 564.397 717.374 564.987C716.228 565.577 714.898 566.136 713.492 566.944L711.276 568.134C710.509 568.569 709.719 569.077 708.941 569.625C707.384 570.578 705.697 571.696 703.924 572.938C696.433 578.281 689.898 584.753 684.572 592.102C683.394 593.82 682.226 595.435 681.329 597.03C680.853 597.817 680.345 598.521 679.945 599.318C679.545 600.115 679.134 600.809 678.756 601.482C677.966 602.838 677.404 604.132 676.842 605.25C676.351 606.225 675.914 607.223 675.534 608.242L674.723 610.095C674.634 610.316 674.529 610.53 674.41 610.737C674.438 610.499 674.499 610.266 674.593 610.044L675.285 608.149C675.577 607.31 675.966 606.317 676.496 605.167C677.026 604.018 677.577 602.703 678.323 601.316C678.702 600.612 679.091 599.825 679.48 599.121C679.869 598.417 680.377 597.63 680.853 596.792C681.772 595.177 682.918 593.551 684.097 591.802C689.402 584.365 695.982 577.841 703.557 572.503C705.33 571.313 706.984 570.164 708.649 569.221C709.46 568.745 710.217 568.248 711.027 567.834L713.287 566.654C714.703 565.867 716.055 565.308 717.222 564.78C718.239 564.302 719.282 563.877 720.347 563.507L722.304 562.792C722.492 562.649 722.704 562.537 722.931 562.461Z" fill="#2F2E41"/>
<path d="M693.881 581.086C694.15 580.198 694.692 579.407 695.438 578.819C697.239 577.319 699.537 576.479 701.924 576.448C704.242 576.444 706.538 576.877 708.681 577.721C709.594 578 710.46 578.4 711.254 578.912C710.324 578.734 709.413 578.478 708.53 578.146C706.404 577.466 704.177 577.116 701.935 577.111C699.711 577.163 697.562 577.888 695.794 579.181C695.121 579.782 694.482 580.418 693.881 581.086Z" fill="#2F2E41"/>
<path d="M689.545 585.393C690.405 583.574 691.019 581.657 691.372 579.688C691.51 577.689 691.375 575.681 690.972 573.715C691.353 574.203 691.609 574.771 691.718 575.371C692.117 576.791 692.228 578.271 692.043 579.73C691.856 581.177 691.398 582.58 690.691 583.871C690.108 584.948 689.61 585.434 689.545 585.393Z" fill="#2F2E41"/>
<path d="M642.246 643.111C643.24 660.121 648.603 677.442 656.83 694.877H692.681C700.476 677.566 705.514 660.297 706.4 643.111H642.246Z" fill="#2F2E41"/>
<path d="M700.573 670.63C700.573 670.806 688.789 670.961 674.247 670.961C659.706 670.961 647.922 670.806 647.922 670.63C647.922 670.454 659.706 670.319 674.247 670.319C688.789 670.319 700.573 670.454 700.573 670.63Z" fill="#FAFAFA"/>
<path d="M699.762 676.8C699.762 676.976 688.702 677.121 675.069 677.121C661.436 677.121 650.398 676.976 650.398 676.8C650.398 676.624 661.447 676.469 675.069 676.469C688.691 676.469 699.762 676.614 699.762 676.8Z" fill="#FAFAFA"/>
<path d="M657.403 654.313C657.868 659.567 657.868 664.848 657.403 670.102C656.971 664.847 656.971 659.568 657.403 654.313Z" fill="#FAFAFA"/>
<path d="M676.593 654.313C677.037 659.778 677.037 665.268 676.593 670.733C676.139 665.269 676.139 659.778 676.593 654.313Z" fill="#FAFAFA"/>
<path d="M694.681 654.137C695.135 659.692 695.135 665.272 694.681 670.826C694.237 665.271 694.237 659.692 694.681 654.137Z" fill="#FAFAFA"/>
<path d="M705.211 654.313C705.211 654.489 691.383 654.645 674.334 654.645C657.284 654.645 643.457 654.489 643.457 654.313C643.457 654.137 657.284 654.003 674.334 654.003C691.383 654.003 705.211 654.096 705.211 654.313Z" fill="#FAFAFA"/>
<path d="M846.158 693.624H105.237V695.146H846.158V693.624Z" fill="#2F2E41"/>
</svg>
